<?xml version="1.0" standalone="yes"?><svg xmlns="http://www.w3.org/2000/svg" version="1.1" width="218" height="218" viewBox="0 0 218 218" shape-rendering="crispEdges"><rect x="0" y="0" width="218" height="218" fill="#fff"/><path fill="#000" d="M8 8h2v2H8V8M10 8h2v2H10V8M12 8h2v2H12V8M14 8h2v2H14V8M16 8h2v2H16V8M18 8h2v2H18V8M20 8h2v2H20V8M24 8h2v2H24V8M26 8h2v2H26V8M28 8h2v2H28V8M30 8h2v2H30V8M34 8h2v2H34V8M40 8h2v2H40V8M50 8h2v2H50V8M60 8h2v2H60V8M62 8h2v2H62V8M64 8h2v2H64V8M70 8h2v2H70V8M78 8h2v2H78V8M82 8h2v2H82V8M86 8h2v2H86V8M94 8h2v2H94V8M100 8h2v2H100V8M102 8h2v2H102V8M114 8h2v2H114V8M116 8h2v2H116V8M130 8h2v2H130V8M138 8h2v2H138V8M144 8h2v2H144V8M146 8h2v2H146V8M154 8h2v2H154V8M156 8h2v2H156V8M158 8h2v2H158V8M160 8h2v2H160V8M162 8h2v2H162V8M164 8h2v2H164V8M182 8h2v2H182V8M188 8h2v2H188V8M190 8h2v2H190V8M196 8h2v2H196V8M198 8h2v2H198V8M200 8h2v2H200V8M202 8h2v2H202V8M204 8h2v2H204V8M206 8h2v2H206V8M208 8h2v2H208V8M8 10h2v2H8V10M20 10h2v2H20V10M24 10h2v2H24V10M26 10h2v2H26V10M32 10h2v2H32V10M34 10h2v2H34V10M38 10h2v2H38V10M40 10h2v2H40V10M42 10h2v2H42V10M46 10h2v2H46V10M48 10h2v2H48V10M50 10h2v2H50V10M52 10h2v2H52V10M54 10h2v2H54V10M56 10h2v2H56V10M62 10h2v2H62V10M64 10h2v2H64V10M66 10h2v2H66V10M70 10h2v2H70V10M72 10h2v2H72V10M74 10h2v2H74V10M76 10h2v2H76V10M92 10h2v2H92V10M94 10h2v2H94V10M102 10h2v2H102V10M108 10h2v2H108V10M110 10h2v2H110V10M112 10h2v2H112V10M114 10h2v2H114V10M116 10h2v2H116V10M118 10h2v2H118V10M120 10h2v2H120V10M122 10h2v2H122V10M138 10h2v2H138V10M144 10h2v2H144V10M156 10h2v2H156V10M158 10h2v2H158V10M162 10h2v2H162V10M164 10h2v2H164V10M166 10h2v2H166V10M168 10h2v2H168V10M176 10h2v2H176V10M182 10h2v2H182V10M196 10h2v2H196V10M208 10h2v2H208V10M8 12h2v2H8V12M12 12h2v2H12V12M14 12h2v2H14V12M16 12h2v2H16V12M20 12h2v2H20V12M34 12h2v2H34V12M36 12h2v2H36V12M44 12h2v2H44V12M48 12h2v2H48V12M50 12h2v2H50V12M58 12h2v2H58V12M60 12h2v2H60V12M66 12h2v2H66V12M68 12h2v2H68V12M70 12h2v2H70V12M74 12h2v2H74V12M78 12h2v2H78V12M80 12h2v2H80V12M82 12h2v2H82V12M88 12h2v2H88V12M90 12h2v2H90V12M92 12h2v2H92V12M94 12h2v2H94V12M96 12h2v2H96V12M98 12h2v2H98V12M100 12h2v2H100V12M106 12h2v2H106V12M108 12h2v2H108V12M110 12h2v2H110V12M114 12h2v2H114V12M118 12h2v2H118V12M122 12h2v2H122V12M124 12h2v2H124V12M128 12h2v2H128V12M132 12h2v2H132V12M136 12h2v2H136V12M142 12h2v2H142V12M144 12h2v2H144V12M146 12h2v2H146V12M148 12h2v2H148V12M152 12h2v2H152V12M158 12h2v2H158V12M162 12h2v2H162V12M168 12h2v2H168V12M172 12h2v2H172V12M176 12h2v2H176V12M178 12h2v2H178V12M182 12h2v2H182V12M186 12h2v2H186V12M190 12h2v2H190V12M196 12h2v2H196V12M200 12h2v2H200V12M202 12h2v2H202V12M204 12h2v2H204V12M208 12h2v2H208V12M8 14h2v2H8V14M12 14h2v2H12V14M14 14h2v2H14V14M16 14h2v2H16V14M20 14h2v2H20V14M24 14h2v2H24V14M26 14h2v2H26V14M34 14h2v2H34V14M36 14h2v2H36V14M38 14h2v2H38V14M48 14h2v2H48V14M50 14h2v2H50V14M54 14h2v2H54V14M58 14h2v2H58V14M60 14h2v2H60V14M62 14h2v2H62V14M64 14h2v2H64V14M66 14h2v2H66V14M68 14h2v2H68V14M70 14h2v2H70V14M72 14h2v2H72V14M84 14h2v2H84V14M86 14h2v2H86V14M90 14h2v2H90V14M94 14h2v2H94V14M102 14h2v2H102V14M106 14h2v2H106V14M110 14h2v2H110V14M112 14h2v2H112V14M116 14h2v2H116V14M118 14h2v2H118V14M120 14h2v2H120V14M122 14h2v2H122V14M126 14h2v2H126V14M128 14h2v2H128V14M130 14h2v2H130V14M138 14h2v2H138V14M146 14h2v2H146V14M148 14h2v2H148V14M150 14h2v2H150V14M152 14h2v2H152V14M166 14h2v2H166V14M174 14h2v2H174V14M176 14h2v2H176V14M178 14h2v2H178V14M184 14h2v2H184V14M188 14h2v2H188V14M190 14h2v2H190V14M196 14h2v2H196V14M200 14h2v2H200V14M202 14h2v2H202V14M204 14h2v2H204V14M208 14h2v2H208V14M8 16h2v2H8V16M12 16h2v2H12V16M14 16h2v2H14V16M16 16h2v2H16V16M20 16h2v2H20V16M28 16h2v2H28V16M32 16h2v2H32V16M34 16h2v2H34V16M36 16h2v2H36V16M38 16h2v2H38V16M40 16h2v2H40V16M42 16h2v2H42V16M44 16h2v2H44V16M46 16h2v2H46V16M48 16h2v2H48V16M54 16h2v2H54V16M56 16h2v2H56V16M58 16h2v2H58V16M60 16h2v2H60V16M62 16h2v2H62V16M64 16h2v2H64V16M66 16h2v2H66V16M68 16h2v2H68V16M70 16h2v2H70V16M74 16h2v2H74V16M78 16h2v2H78V16M82 16h2v2H82V16M94 16h2v2H94V16M96 16h2v2H96V16M100 16h2v2H100V16M102 16h2v2H102V16M104 16h2v2H104V16M106 16h2v2H106V16M108 16h2v2H108V16M110 16h2v2H110V16M112 16h2v2H112V16M126 16h2v2H126V16M136 16h2v2H136V16M140 16h2v2H140V16M144 16h2v2H144V16M148 16h2v2H148V16M150 16h2v2H150V16M152 16h2v2H152V16M154 16h2v2H154V16M156 16h2v2H156V16M166 16h2v2H166V16M170 16h2v2H170V16M176 16h2v2H176V16M178 16h2v2H178V16M180 16h2v2H180V16M184 16h2v2H184V16M188 16h2v2H188V16M192 16h2v2H192V16M196 16h2v2H196V16M200 16h2v2H200V16M202 16h2v2H202V16M204 16h2v2H204V16M208 16h2v2H208V16M8 18h2v2H8V18M20 18h2v2H20V18M38 18h2v2H38V18M40 18h2v2H40V18M44 18h2v2H44V18M50 18h2v2H50V18M52 18h2v2H52V18M54 18h2v2H54V18M56 18h2v2H56V18M58 18h2v2H58V18M60 18h2v2H60V18M68 18h2v2H68V18M70 18h2v2H70V18M72 18h2v2H72V18M74 18h2v2H74V18M76 18h2v2H76V18M80 18h2v2H80V18M82 18h2v2H82V18M86 18h2v2H86V18M88 18h2v2H88V18M90 18h2v2H90V18M94 18h2v2H94V18M98 18h2v2H98V18M102 18h2v2H102V18M104 18h2v2H104V18M112 18h2v2H112V18M122 18h2v2H122V18M124 18h2v2H124V18M126 18h2v2H126V18M132 18h2v2H132V18M134 18h2v2H134V18M146 18h2v2H146V18M148 18h2v2H148V18M156 18h2v2H156V18M158 18h2v2H158V18M160 18h2v2H160V18M162 18h2v2H162V18M168 18h2v2H168V18M182 18h2v2H182V18M186 18h2v2H186V18M190 18h2v2H190V18M196 18h2v2H196V18M208 18h2v2H208V18M8 20h2v2H8V20M10 20h2v2H10V20M12 20h2v2H12V20M14 20h2v2H14V20M16 20h2v2H16V20M18 20h2v2H18V20M20 20h2v2H20V20M24 20h2v2H24V20M28 20h2v2H28V20M32 20h2v2H32V20M36 20h2v2H36V20M40 20h2v2H40V20M44 20h2v2H44V20M48 20h2v2H48V20M52 20h2v2H52V20M56 20h2v2H56V20M60 20h2v2H60V20M64 20h2v2H64V20M68 20h2v2H68V20M72 20h2v2H72V20M76 20h2v2H76V20M80 20h2v2H80V20M84 20h2v2H84V20M88 20h2v2H88V20M92 20h2v2H92V20M96 20h2v2H96V20M100 20h2v2H100V20M104 20h2v2H104V20M108 20h2v2H108V20M112 20h2v2H112V20M116 20h2v2H116V20M120 20h2v2H120V20M124 20h2v2H124V20M128 20h2v2H128V20M132 20h2v2H132V20M136 20h2v2H136V20M140 20h2v2H140V20M144 20h2v2H144V20M148 20h2v2H148V20M152 20h2v2H152V20M156 20h2v2H156V20M160 20h2v2H160V20M164 20h2v2H164V20M168 20h2v2H168V20M172 20h2v2H172V20M176 20h2v2H176V20M180 20h2v2H180V20M184 20h2v2H184V20M188 20h2v2H188V20M192 20h2v2H192V20M196 20h2v2H196V20M198 20h2v2H198V20M200 20h2v2H200V20M202 20h2v2H202V20M204 20h2v2H204V20M206 20h2v2H206V20M208 20h2v2H208V20M24 22h2v2H24V22M28 22h2v2H28V22M34 22h2v2H34V22M44 22h2v2H44V22M54 22h2v2H54V22M56 22h2v2H56V22M58 22h2v2H58V22M60 22h2v2H60V22M68 22h2v2H68V22M70 22h2v2H70V22M72 22h2v2H72V22M82 22h2v2H82V22M84 22h2v2H84V22M86 22h2v2H86V22M90 22h2v2H90V22M92 22h2v2H92V22M96 22h2v2H96V22M102 22h2v2H102V22M104 22h2v2H104V22M112 22h2v2H112V22M114 22h2v2H114V22M118 22h2v2H118V22M124 22h2v2H124V22M128 22h2v2H128V22M130 22h2v2H130V22M136 22h2v2H136V22M142 22h2v2H142V22M146 22h2v2H146V22M148 22h2v2H148V22M156 22h2v2H156V22M170 22h2v2H170V22M172 22h2v2H172V22M176 22h2v2H176V22M184 22h2v2H184V22M186 22h2v2H186V22M190 22h2v2H190V22M8 24h2v2H8V24M12 24h2v2H12V24M14 24h2v2H14V24M18 24h2v2H18V24M20 24h2v2H20V24M22 24h2v2H22V24M30 24h2v2H30V24M32 24h2v2H32V24M34 24h2v2H34V24M42 24h2v2H42V24M46 24h2v2H46V24M48 24h2v2H48V24M50 24h2v2H50V24M52 24h2v2H52V24M56 24h2v2H56V24M58 24h2v2H58V24M60 24h2v2H60V24M62 24h2v2H62V24M64 24h2v2H64V24M66 24h2v2H66V24M68 24h2v2H68V24M70 24h2v2H70V24M72 24h2v2H72V24M74 24h2v2H74V24M84 24h2v2H84V24M88 24h2v2H88V24M100 24h2v2H100V24M104 24h2v2H104V24M106 24h2v2H106V24M108 24h2v2H108V24M110 24h2v2H110V24M112 24h2v2H112V24M124 24h2v2H124V24M126 24h2v2H126V24M132 24h2v2H132V24M134 24h2v2H134V24M136 24h2v2H136V24M138 24h2v2H138V24M144 24h2v2H144V24M148 24h2v2H148V24M150 24h2v2H150V24M152 24h2v2H152V24M154 24h2v2H154V24M156 24h2v2H156V24M158 24h2v2H158V24M170 24h2v2H170V24M172 24h2v2H172V24M174 24h2v2H174V24M176 24h2v2H176V24M178 24h2v2H178V24M184 24h2v2H184V24M188 24h2v2H188V24M190 24h2v2H190V24M196 24h2v2H196V24M202 24h2v2H202V24M206 24h2v2H206V24M208 24h2v2H208V24M10 26h2v2H10V26M12 26h2v2H12V26M26 26h2v2H26V26M28 26h2v2H28V26M34 26h2v2H34V26M36 26h2v2H36V26M42 26h2v2H42V26M48 26h2v2H48V26M50 26h2v2H50V26M52 26h2v2H52V26M60 26h2v2H60V26M62 26h2v2H62V26M68 26h2v2H68V26M70 26h2v2H70V26M72 26h2v2H72V26M74 26h2v2H74V26M76 26h2v2H76V26M84 26h2v2H84V26M96 26h2v2H96V26M98 26h2v2H98V26M108 26h2v2H108V26M116 26h2v2H116V26M122 26h2v2H122V26M126 26h2v2H126V26M130 26h2v2H130V26M136 26h2v2H136V26M144 26h2v2H144V26M148 26h2v2H148V26M152 26h2v2H152V26M154 26h2v2H154V26M158 26h2v2H158V26M160 26h2v2H160V26M164 26h2v2H164V26M170 26h2v2H170V26M178 26h2v2H178V26M184 26h2v2H184V26M186 26h2v2H186V26M190 26h2v2H190V26M196 26h2v2H196V26M198 26h2v2H198V26M200 26h2v2H200V26M204 26h2v2H204V26M208 26h2v2H208V26M8 28h2v2H8V28M10 28h2v2H10V28M12 28h2v2H12V28M14 28h2v2H14V28M18 28h2v2H18V28M20 28h2v2H20V28M22 28h2v2H22V28M26 28h2v2H26V28M30 28h2v2H30V28M32 28h2v2H32V28M38 28h2v2H38V28M42 28h2v2H42V28M44 28h2v2H44V28M50 28h2v2H50V28M52 28h2v2H52V28M60 28h2v2H60V28M64 28h2v2H64V28M66 28h2v2H66V28M68 28h2v2H68V28M70 28h2v2H70V28M86 28h2v2H86V28M88 28h2v2H88V28M90 28h2v2H90V28M94 28h2v2H94V28M98 28h2v2H98V28M102 28h2v2H102V28M106 28h2v2H106V28M112 28h2v2H112V28M114 28h2v2H114V28M118 28h2v2H118V28M120 28h2v2H120V28M122 28h2v2H122V28M124 28h2v2H124V28M128 28h2v2H128V28M130 28h2v2H130V28M132 28h2v2H132V28M140 28h2v2H140V28M142 28h2v2H142V28M150 28h2v2H150V28M158 28h2v2H158V28M162 28h2v2H162V28M164 28h2v2H164V28M168 28h2v2H168V28M174 28h2v2H174V28M188 28h2v2H188V28M192 28h2v2H192V28M198 28h2v2H198V28M202 28h2v2H202V28M208 28h2v2H208V28M14 30h2v2H14V30M22 30h2v2H22V30M24 30h2v2H24V30M26 30h2v2H26V30M32 30h2v2H32V30M38 30h2v2H38V30M42 30h2v2H42V30M44 30h2v2H44V30M48 30h2v2H48V30M50 30h2v2H50V30M54 30h2v2H54V30M56 30h2v2H56V30M58 30h2v2H58V30M60 30h2v2H60V30M62 30h2v2H62V30M64 30h2v2H64V30M70 30h2v2H70V30M72 30h2v2H72V30M74 30h2v2H74V30M80 30h2v2H80V30M84 30h2v2H84V30M86 30h2v2H86V30M94 30h2v2H94V30M96 30h2v2H96V30M98 30h2v2H98V30M106 30h2v2H106V30M112 30h2v2H112V30M118 30h2v2H118V30M122 30h2v2H122V30M124 30h2v2H124V30M128 30h2v2H128V30M130 30h2v2H130V30M132 30h2v2H132V30M134 30h2v2H134V30M142 30h2v2H142V30M144 30h2v2H144V30M150 30h2v2H150V30M158 30h2v2H158V30M160 30h2v2H160V30M166 30h2v2H166V30M170 30h2v2H170V30M172 30h2v2H172V30M180 30h2v2H180V30M184 30h2v2H184V30M190 30h2v2H190V30M196 30h2v2H196V30M200 30h2v2H200V30M204 30h2v2H204V30M208 30h2v2H208V30M8 32h2v2H8V32M14 32h2v2H14V32M16 32h2v2H16V32M20 32h2v2H20V32M22 32h2v2H22V32M24 32h2v2H24V32M30 32h2v2H30V32M34 32h2v2H34V32M42 32h2v2H42V32M44 32h2v2H44V32M48 32h2v2H48V32M50 32h2v2H50V32M52 32h2v2H52V32M56 32h2v2H56V32M62 32h2v2H62V32M64 32h2v2H64V32M72 32h2v2H72V32M74 32h2v2H74V32M78 32h2v2H78V32M80 32h2v2H80V32M82 32h2v2H82V32M92 32h2v2H92V32M94 32h2v2H94V32M102 32h2v2H102V32M104 32h2v2H104V32M108 32h2v2H108V32M112 32h2v2H112V32M116 32h2v2H116V32M118 32h2v2H118V32M120 32h2v2H120V32M124 32h2v2H124V32M126 32h2v2H126V32M128 32h2v2H128V32M136 32h2v2H136V32M138 32h2v2H138V32M146 32h2v2H146V32M150 32h2v2H150V32M152 32h2v2H152V32M158 32h2v2H158V32M164 32h2v2H164V32M166 32h2v2H166V32M170 32h2v2H170V32M176 32h2v2H176V32M182 32h2v2H182V32M186 32h2v2H186V32M188 32h2v2H188V32M190 32h2v2H190V32M192 32h2v2H192V32M200 32h2v2H200V32M202 32h2v2H202V32M208 32h2v2H208V32M8 34h2v2H8V34M10 34h2v2H10V34M12 34h2v2H12V34M22 34h2v2H22V34M24 34h2v2H24V34M36 34h2v2H36V34M40 34h2v2H40V34M44 34h2v2H44V34M54 34h2v2H54V34M56 34h2v2H56V34M58 34h2v2H58V34M60 34h2v2H60V34M64 34h2v2H64V34M68 34h2v2H68V34M72 34h2v2H72V34M78 34h2v2H78V34M82 34h2v2H82V34M86 34h2v2H86V34M88 34h2v2H88V34M90 34h2v2H90V34M92 34h2v2H92V34M94 34h2v2H94V34M100 34h2v2H100V34M104 34h2v2H104V34M106 34h2v2H106V34M110 34h2v2H110V34M112 34h2v2H112V34M114 34h2v2H114V34M116 34h2v2H116V34M126 34h2v2H126V34M136 34h2v2H136V34M138 34h2v2H138V34M140 34h2v2H140V34M142 34h2v2H142V34M146 34h2v2H146V34M150 34h2v2H150V34M154 34h2v2H154V34M156 34h2v2H156V34M158 34h2v2H158V34M160 34h2v2H160V34M162 34h2v2H162V34M166 34h2v2H166V34M168 34h2v2H168V34M174 34h2v2H174V34M178 34h2v2H178V34M190 34h2v2H190V34M192 34h2v2H192V34M194 34h2v2H194V34M196 34h2v2H196V34M200 34h2v2H200V34M204 34h2v2H204V34M12 36h2v2H12V36M20 36h2v2H20V36M22 36h2v2H22V36M24 36h2v2H24V36M32 36h2v2H32V36M38 36h2v2H38V36M42 36h2v2H42V36M44 36h2v2H44V36M48 36h2v2H48V36M58 36h2v2H58V36M60 36h2v2H60V36M64 36h2v2H64V36M66 36h2v2H66V36M70 36h2v2H70V36M78 36h2v2H78V36M80 36h2v2H80V36M82 36h2v2H82V36M84 36h2v2H84V36M86 36h2v2H86V36M88 36h2v2H88V36M90 36h2v2H90V36M94 36h2v2H94V36M98 36h2v2H98V36M102 36h2v2H102V36M104 36h2v2H104V36M108 36h2v2H108V36M112 36h2v2H112V36M114 36h2v2H114V36M116 36h2v2H116V36M124 36h2v2H124V36M130 36h2v2H130V36M136 36h2v2H136V36M138 36h2v2H138V36M140 36h2v2H140V36M142 36h2v2H142V36M148 36h2v2H148V36M154 36h2v2H154V36M158 36h2v2H158V36M160 36h2v2H160V36M166 36h2v2H166V36M172 36h2v2H172V36M184 36h2v2H184V36M188 36h2v2H188V36M192 36h2v2H192V36M196 36h2v2H196V36M198 36h2v2H198V36M202 36h2v2H202V36M208 36h2v2H208V36M10 38h2v2H10V38M12 38h2v2H12V38M14 38h2v2H14V38M18 38h2v2H18V38M26 38h2v2H26V38M28 38h2v2H28V38M30 38h2v2H30V38M32 38h2v2H32V38M38 38h2v2H38V38M40 38h2v2H40V38M44 38h2v2H44V38M46 38h2v2H46V38M52 38h2v2H52V38M58 38h2v2H58V38M60 38h2v2H60V38M64 38h2v2H64V38M68 38h2v2H68V38M72 38h2v2H72V38M74 38h2v2H74V38M76 38h2v2H76V38M78 38h2v2H78V38M82 38h2v2H82V38M94 38h2v2H94V38M96 38h2v2H96V38M98 38h2v2H98V38M110 38h2v2H110V38M116 38h2v2H116V38M118 38h2v2H118V38M122 38h2v2H122V38M124 38h2v2H124V38M128 38h2v2H128V38M134 38h2v2H134V38M140 38h2v2H140V38M146 38h2v2H146V38M150 38h2v2H150V38M152 38h2v2H152V38M158 38h2v2H158V38M164 38h2v2H164V38M172 38h2v2H172V38M176 38h2v2H176V38M178 38h2v2H178V38M186 38h2v2H186V38M198 38h2v2H198V38M204 38h2v2H204V38M206 38h2v2H206V38M10 40h2v2H10V40M12 40h2v2H12V40M14 40h2v2H14V40M20 40h2v2H20V40M22 40h2v2H22V40M34 40h2v2H34V40M38 40h2v2H38V40M42 40h2v2H42V40M46 40h2v2H46V40M50 40h2v2H50V40M52 40h2v2H52V40M56 40h2v2H56V40M62 40h2v2H62V40M64 40h2v2H64V40M68 40h2v2H68V40M70 40h2v2H70V40M76 40h2v2H76V40M80 40h2v2H80V40M82 40h2v2H82V40M86 40h2v2H86V40M88 40h2v2H88V40M94 40h2v2H94V40M100 40h2v2H100V40M104 40h2v2H104V40M106 40h2v2H106V40M108 40h2v2H108V40M116 40h2v2H116V40M120 40h2v2H120V40M122 40h2v2H122V40M132 40h2v2H132V40M140 40h2v2H140V40M144 40h2v2H144V40M150 40h2v2H150V40M154 40h2v2H154V40M164 40h2v2H164V40M166 40h2v2H166V40M168 40h2v2H168V40M172 40h2v2H172V40M174 40h2v2H174V40M180 40h2v2H180V40M186 40h2v2H186V40M188 40h2v2H188V40M192 40h2v2H192V40M194 40h2v2H194V40M200 40h2v2H200V40M204 40h2v2H204V40M12 42h2v2H12V42M22 42h2v2H22V42M24 42h2v2H24V42M26 42h2v2H26V42M28 42h2v2H28V42M30 42h2v2H30V42M32 42h2v2H32V42M34 42h2v2H34V42M38 42h2v2H38V42M40 42h2v2H40V42M46 42h2v2H46V42M54 42h2v2H54V42M58 42h2v2H58V42M64 42h2v2H64V42M66 42h2v2H66V42M68 42h2v2H68V42M70 42h2v2H70V42M74 42h2v2H74V42M80 42h2v2H80V42M86 42h2v2H86V42M88 42h2v2H88V42M94 42h2v2H94V42M96 42h2v2H96V42M100 42h2v2H100V42M104 42h2v2H104V42M112 42h2v2H112V42M114 42h2v2H114V42M116 42h2v2H116V42M120 42h2v2H120V42M122 42h2v2H122V42M126 42h2v2H126V42M136 42h2v2H136V42M142 42h2v2H142V42M146 42h2v2H146V42M148 42h2v2H148V42M158 42h2v2H158V42M166 42h2v2H166V42M170 42h2v2H170V42M178 42h2v2H178V42M184 42h2v2H184V42M192 42h2v2H192V42M202 42h2v2H202V42M204 42h2v2H204V42M208 42h2v2H208V42M8 44h2v2H8V44M18 44h2v2H18V44M20 44h2v2H20V44M22 44h2v2H22V44M26 44h2v2H26V44M28 44h2v2H28V44M34 44h2v2H34V44M36 44h2v2H36V44M42 44h2v2H42V44M44 44h2v2H44V44M46 44h2v2H46V44M48 44h2v2H48V44M52 44h2v2H52V44M54 44h2v2H54V44M56 44h2v2H56V44M60 44h2v2H60V44M66 44h2v2H66V44M68 44h2v2H68V44M76 44h2v2H76V44M80 44h2v2H80V44M86 44h2v2H86V44M104 44h2v2H104V44M108 44h2v2H108V44M114 44h2v2H114V44M116 44h2v2H116V44M118 44h2v2H118V44M122 44h2v2H122V44M128 44h2v2H128V44M134 44h2v2H134V44M146 44h2v2H146V44M150 44h2v2H150V44M152 44h2v2H152V44M154 44h2v2H154V44M156 44h2v2H156V44M170 44h2v2H170V44M176 44h2v2H176V44M180 44h2v2H180V44M182 44h2v2H182V44M184 44h2v2H184V44M188 44h2v2H188V44M192 44h2v2H192V44M196 44h2v2H196V44M198 44h2v2H198V44M202 44h2v2H202V44M204 44h2v2H204V44M8 46h2v2H8V46M12 46h2v2H12V46M18 46h2v2H18V46M24 46h2v2H24V46M26 46h2v2H26V46M28 46h2v2H28V46M32 46h2v2H32V46M38 46h2v2H38V46M42 46h2v2H42V46M44 46h2v2H44V46M46 46h2v2H46V46M50 46h2v2H50V46M58 46h2v2H58V46M70 46h2v2H70V46M72 46h2v2H72V46M76 46h2v2H76V46M80 46h2v2H80V46M90 46h2v2H90V46M96 46h2v2H96V46M100 46h2v2H100V46M104 46h2v2H104V46M106 46h2v2H106V46M116 46h2v2H116V46M120 46h2v2H120V46M124 46h2v2H124V46M126 46h2v2H126V46M130 46h2v2H130V46M132 46h2v2H132V46M142 46h2v2H142V46M144 46h2v2H144V46M156 46h2v2H156V46M164 46h2v2H164V46M166 46h2v2H166V46M168 46h2v2H168V46M174 46h2v2H174V46M176 46h2v2H176V46M180 46h2v2H180V46M182 46h2v2H182V46M190 46h2v2H190V46M198 46h2v2H198V46M200 46h2v2H200V46M204 46h2v2H204V46M8 48h2v2H8V48M14 48h2v2H14V48M18 48h2v2H18V48M20 48h2v2H20V48M22 48h2v2H22V48M24 48h2v2H24V48M28 48h2v2H28V48M32 48h2v2H32V48M38 48h2v2H38V48M44 48h2v2H44V48M46 48h2v2H46V48M50 48h2v2H50V48M52 48h2v2H52V48M54 48h2v2H54V48M58 48h2v2H58V48M62 48h2v2H62V48M68 48h2v2H68V48M70 48h2v2H70V48M72 48h2v2H72V48M78 48h2v2H78V48M94 48h2v2H94V48M100 48h2v2H100V48M106 48h2v2H106V48M108 48h2v2H108V48M110 48h2v2H110V48M112 48h2v2H112V48M118 48h2v2H118V48M122 48h2v2H122V48M126 48h2v2H126V48M130 48h2v2H130V48M132 48h2v2H132V48M136 48h2v2H136V48M138 48h2v2H138V48M142 48h2v2H142V48M148 48h2v2H148V48M154 48h2v2H154V48M156 48h2v2H156V48M164 48h2v2H164V48M170 48h2v2H170V48M180 48h2v2H180V48M184 48h2v2H184V48M188 48h2v2H188V48M190 48h2v2H190V48M194 48h2v2H194V48M196 48h2v2H196V48M202 48h2v2H202V48M208 48h2v2H208V48M8 50h2v2H8V50M10 50h2v2H10V50M18 50h2v2H18V50M24 50h2v2H24V50M28 50h2v2H28V50M32 50h2v2H32V50M34 50h2v2H34V50M40 50h2v2H40V50M50 50h2v2H50V50M52 50h2v2H52V50M60 50h2v2H60V50M62 50h2v2H62V50M68 50h2v2H68V50M78 50h2v2H78V50M82 50h2v2H82V50M84 50h2v2H84V50M86 50h2v2H86V50M88 50h2v2H88V50M92 50h2v2H92V50M98 50h2v2H98V50M104 50h2v2H104V50M110 50h2v2H110V50M118 50h2v2H118V50M120 50h2v2H120V50M122 50h2v2H122V50M124 50h2v2H124V50M128 50h2v2H128V50M134 50h2v2H134V50M138 50h2v2H138V50M140 50h2v2H140V50M146 50h2v2H146V50M154 50h2v2H154V50M156 50h2v2H156V50M158 50h2v2H158V50M162 50h2v2H162V50M174 50h2v2H174V50M176 50h2v2H176V50M182 50h2v2H182V50M184 50h2v2H184V50M186 50h2v2H186V50M188 50h2v2H188V50M194 50h2v2H194V50M200 50h2v2H200V50M202 50h2v2H202V50M204 50h2v2H204V50M206 50h2v2H206V50M208 50h2v2H208V50M8 52h2v2H8V52M12 52h2v2H12V52M16 52h2v2H16V52M18 52h2v2H18V52M20 52h2v2H20V52M22 52h2v2H22V52M24 52h2v2H24V52M26 52h2v2H26V52M28 52h2v2H28V52M34 52h2v2H34V52M36 52h2v2H36V52M38 52h2v2H38V52M46 52h2v2H46V52M48 52h2v2H48V52M50 52h2v2H50V52M52 52h2v2H52V52M58 52h2v2H58V52M64 52h2v2H64V52M68 52h2v2H68V52M70 52h2v2H70V52M72 52h2v2H72V52M74 52h2v2H74V52M86 52h2v2H86V52M88 52h2v2H88V52M90 52h2v2H90V52M96 52h2v2H96V52M98 52h2v2H98V52M102 52h2v2H102V52M108 52h2v2H108V52M110 52h2v2H110V52M114 52h2v2H114V52M118 52h2v2H118V52M120 52h2v2H120V52M122 52h2v2H122V52M124 52h2v2H124V52M126 52h2v2H126V52M130 52h2v2H130V52M132 52h2v2H132V52M138 52h2v2H138V52M146 52h2v2H146V52M148 52h2v2H148V52M150 52h2v2H150V52M154 52h2v2H154V52M158 52h2v2H158V52M160 52h2v2H160V52M164 52h2v2H164V52M170 52h2v2H170V52M172 52h2v2H172V52M174 52h2v2H174V52M176 52h2v2H176V52M186 52h2v2H186V52M188 52h2v2H188V52M192 52h2v2H192V52M194 52h2v2H194V52M198 52h2v2H198V52M202 52h2v2H202V52M206 52h2v2H206V52M8 54h2v2H8V54M16 54h2v2H16V54M18 54h2v2H18V54M22 54h2v2H22V54M26 54h2v2H26V54M30 54h2v2H30V54M38 54h2v2H38V54M40 54h2v2H40V54M42 54h2v2H42V54M48 54h2v2H48V54M50 54h2v2H50V54M54 54h2v2H54V54M58 54h2v2H58V54M62 54h2v2H62V54M66 54h2v2H66V54M74 54h2v2H74V54M76 54h2v2H76V54M78 54h2v2H78V54M84 54h2v2H84V54M94 54h2v2H94V54M100 54h2v2H100V54M110 54h2v2H110V54M112 54h2v2H112V54M114 54h2v2H114V54M118 54h2v2H118V54M124 54h2v2H124V54M126 54h2v2H126V54M140 54h2v2H140V54M146 54h2v2H146V54M150 54h2v2H150V54M152 54h2v2H152V54M154 54h2v2H154V54M158 54h2v2H158V54M160 54h2v2H160V54M162 54h2v2H162V54M166 54h2v2H166V54M172 54h2v2H172V54M174 54h2v2H174V54M182 54h2v2H182V54M186 54h2v2H186V54M188 54h2v2H188V54M194 54h2v2H194V54M202 54h2v2H202V54M208 54h2v2H208V54M8 56h2v2H8V56M20 56h2v2H20V56M22 56h2v2H22V56M24 56h2v2H24V56M30 56h2v2H30V56M38 56h2v2H38V56M42 56h2v2H42V56M44 56h2v2H44V56M46 56h2v2H46V56M48 56h2v2H48V56M50 56h2v2H50V56M52 56h2v2H52V56M56 56h2v2H56V56M58 56h2v2H58V56M60 56h2v2H60V56M62 56h2v2H62V56M64 56h2v2H64V56M70 56h2v2H70V56M76 56h2v2H76V56M78 56h2v2H78V56M80 56h2v2H80V56M84 56h2v2H84V56M88 56h2v2H88V56M92 56h2v2H92V56M100 56h2v2H100V56M104 56h2v2H104V56M108 56h2v2H108V56M110 56h2v2H110V56M112 56h2v2H112V56M116 56h2v2H116V56M120 56h2v2H120V56M122 56h2v2H122V56M124 56h2v2H124V56M126 56h2v2H126V56M128 56h2v2H128V56M134 56h2v2H134V56M138 56h2v2H138V56M140 56h2v2H140V56M146 56h2v2H146V56M150 56h2v2H150V56M152 56h2v2H152V56M154 56h2v2H154V56M156 56h2v2H156V56M160 56h2v2H160V56M164 56h2v2H164V56M166 56h2v2H166V56M168 56h2v2H168V56M170 56h2v2H170V56M172 56h2v2H172V56M178 56h2v2H178V56M182 56h2v2H182V56M184 56h2v2H184V56M188 56h2v2H188V56M200 56h2v2H200V56M202 56h2v2H202V56M206 56h2v2H206V56M208 56h2v2H208V56M8 58h2v2H8V58M12 58h2v2H12V58M18 58h2v2H18V58M26 58h2v2H26V58M28 58h2v2H28V58M30 58h2v2H30V58M32 58h2v2H32V58M34 58h2v2H34V58M36 58h2v2H36V58M44 58h2v2H44V58M46 58h2v2H46V58M48 58h2v2H48V58M50 58h2v2H50V58M60 58h2v2H60V58M62 58h2v2H62V58M64 58h2v2H64V58M66 58h2v2H66V58M68 58h2v2H68V58M74 58h2v2H74V58M78 58h2v2H78V58M80 58h2v2H80V58M86 58h2v2H86V58M90 58h2v2H90V58M96 58h2v2H96V58M100 58h2v2H100V58M106 58h2v2H106V58M108 58h2v2H108V58M110 58h2v2H110V58M120 58h2v2H120V58M122 58h2v2H122V58M124 58h2v2H124V58M126 58h2v2H126V58M132 58h2v2H132V58M134 58h2v2H134V58M138 58h2v2H138V58M148 58h2v2H148V58M152 58h2v2H152V58M154 58h2v2H154V58M156 58h2v2H156V58M158 58h2v2H158V58M160 58h2v2H160V58M162 58h2v2H162V58M166 58h2v2H166V58M168 58h2v2H168V58M174 58h2v2H174V58M178 58h2v2H178V58M180 58h2v2H180V58M182 58h2v2H182V58M186 58h2v2H186V58M188 58h2v2H188V58M192 58h2v2H192V58M194 58h2v2H194V58M198 58h2v2H198V58M202 58h2v2H202V58M204 58h2v2H204V58M16 60h2v2H16V60M18 60h2v2H18V60M20 60h2v2H20V60M22 60h2v2H22V60M24 60h2v2H24V60M26 60h2v2H26V60M28 60h2v2H28V60M30 60h2v2H30V60M34 60h2v2H34V60M38 60h2v2H38V60M40 60h2v2H40V60M42 60h2v2H42V60M44 60h2v2H44V60M48 60h2v2H48V60M50 60h2v2H50V60M52 60h2v2H52V60M54 60h2v2H54V60M60 60h2v2H60V60M62 60h2v2H62V60M64 60h2v2H64V60M66 60h2v2H66V60M68 60h2v2H68V60M72 60h2v2H72V60M74 60h2v2H74V60M78 60h2v2H78V60M80 60h2v2H80V60M82 60h2v2H82V60M94 60h2v2H94V60M98 60h2v2H98V60M104 60h2v2H104V60M106 60h2v2H106V60M108 60h2v2H108V60M110 60h2v2H110V60M112 60h2v2H112V60M120 60h2v2H120V60M124 60h2v2H124V60M128 60h2v2H128V60M142 60h2v2H142V60M148 60h2v2H148V60M150 60h2v2H150V60M152 60h2v2H152V60M154 60h2v2H154V60M156 60h2v2H156V60M160 60h2v2H160V60M164 60h2v2H164V60M166 60h2v2H166V60M168 60h2v2H168V60M170 60h2v2H170V60M172 60h2v2H172V60M178 60h2v2H178V60M182 60h2v2H182V60M192 60h2v2H192V60M194 60h2v2H194V60M196 60h2v2H196V60M198 60h2v2H198V60M200 60h2v2H200V60M202 60h2v2H202V60M204 60h2v2H204V60M206 60h2v2H206V60M10 62h2v2H10V62M12 62h2v2H12V62M14 62h2v2H14V62M16 62h2v2H16V62M24 62h2v2H24V62M30 62h2v2H30V62M32 62h2v2H32V62M34 62h2v2H34V62M40 62h2v2H40V62M46 62h2v2H46V62M48 62h2v2H48V62M60 62h2v2H60V62M68 62h2v2H68V62M70 62h2v2H70V62M72 62h2v2H72V62M74 62h2v2H74V62M78 62h2v2H78V62M80 62h2v2H80V62M86 62h2v2H86V62M92 62h2v2H92V62M96 62h2v2H96V62M98 62h2v2H98V62M104 62h2v2H104V62M112 62h2v2H112V62M114 62h2v2H114V62M116 62h2v2H116V62M118 62h2v2H118V62M122 62h2v2H122V62M128 62h2v2H128V62M140 62h2v2H140V62M142 62h2v2H142V62M144 62h2v2H144V62M148 62h2v2H148V62M156 62h2v2H156V62M160 62h2v2H160V62M164 62h2v2H164V62M176 62h2v2H176V62M180 62h2v2H180V62M186 62h2v2H186V62M188 62h2v2H188V62M192 62h2v2H192V62M200 62h2v2H200V62M202 62h2v2H202V62M204 62h2v2H204V62M206 62h2v2H206V62M208 62h2v2H208V62M8 64h2v2H8V64M10 64h2v2H10V64M12 64h2v2H12V64M14 64h2v2H14V64M16 64h2v2H16V64M20 64h2v2H20V64M24 64h2v2H24V64M26 64h2v2H26V64M28 64h2v2H28V64M32 64h2v2H32V64M38 64h2v2H38V64M42 64h2v2H42V64M46 64h2v2H46V64M50 64h2v2H50V64M56 64h2v2H56V64M60 64h2v2H60V64M64 64h2v2H64V64M68 64h2v2H68V64M72 64h2v2H72V64M76 64h2v2H76V64M78 64h2v2H78V64M82 64h2v2H82V64M86 64h2v2H86V64M90 64h2v2H90V64M96 64h2v2H96V64M98 64h2v2H98V64M102 64h2v2H102V64M104 64h2v2H104V64M108 64h2v2H108V64M112 64h2v2H112V64M118 64h2v2H118V64M122 64h2v2H122V64M124 64h2v2H124V64M128 64h2v2H128V64M132 64h2v2H132V64M136 64h2v2H136V64M146 64h2v2H146V64M148 64h2v2H148V64M152 64h2v2H152V64M156 64h2v2H156V64M160 64h2v2H160V64M162 64h2v2H162V64M164 64h2v2H164V64M168 64h2v2H168V64M174 64h2v2H174V64M176 64h2v2H176V64M178 64h2v2H178V64M180 64h2v2H180V64M186 64h2v2H186V64M190 64h2v2H190V64M192 64h2v2H192V64M196 64h2v2H196V64M200 64h2v2H200V64M204 64h2v2H204V64M206 64h2v2H206V64M10 66h2v2H10V66M14 66h2v2H14V66M16 66h2v2H16V66M24 66h2v2H24V66M26 66h2v2H26V66M30 66h2v2H30V66M32 66h2v2H32V66M38 66h2v2H38V66M42 66h2v2H42V66M44 66h2v2H44V66M46 66h2v2H46V66M48 66h2v2H48V66M50 66h2v2H50V66M58 66h2v2H58V66M60 66h2v2H60V66M68 66h2v2H68V66M70 66h2v2H70V66M74 66h2v2H74V66M78 66h2v2H78V66M80 66h2v2H80V66M82 66h2v2H82V66M84 66h2v2H84V66M86 66h2v2H86V66M90 66h2v2H90V66M104 66h2v2H104V66M112 66h2v2H112V66M116 66h2v2H116V66M120 66h2v2H120V66M122 66h2v2H122V66M126 66h2v2H126V66M136 66h2v2H136V66M148 66h2v2H148V66M156 66h2v2H156V66M160 66h2v2H160V66M162 66h2v2H162V66M164 66h2v2H164V66M168 66h2v2H168V66M172 66h2v2H172V66M178 66h2v2H178V66M184 66h2v2H184V66M190 66h2v2H190V66M192 66h2v2H192V66M200 66h2v2H200V66M202 66h2v2H202V66M208 66h2v2H208V66M14 68h2v2H14V68M16 68h2v2H16V68M18 68h2v2H18V68M20 68h2v2H20V68M22 68h2v2H22V68M24 68h2v2H24V68M38 68h2v2H38V68M40 68h2v2H40V68M42 68h2v2H42V68M44 68h2v2H44V68M46 68h2v2H46V68M48 68h2v2H48V68M50 68h2v2H50V68M52 68h2v2H52V68M56 68h2v2H56V68M58 68h2v2H58V68M60 68h2v2H60V68M62 68h2v2H62V68M64 68h2v2H64V68M66 68h2v2H66V68M68 68h2v2H68V68M72 68h2v2H72V68M76 68h2v2H76V68M82 68h2v2H82V68M84 68h2v2H84V68M88 68h2v2H88V68M92 68h2v2H92V68M96 68h2v2H96V68M100 68h2v2H100V68M104 68h2v2H104V68M106 68h2v2H106V68M108 68h2v2H108V68M110 68h2v2H110V68M112 68h2v2H112V68M114 68h2v2H114V68M122 68h2v2H122V68M130 68h2v2H130V68M134 68h2v2H134V68M140 68h2v2H140V68M142 68h2v2H142V68M144 68h2v2H144V68M148 68h2v2H148V68M150 68h2v2H150V68M152 68h2v2H152V68M154 68h2v2H154V68M156 68h2v2H156V68M158 68h2v2H158V68M164 68h2v2H164V68M166 68h2v2H166V68M182 68h2v2H182V68M188 68h2v2H188V68M190 68h2v2H190V68M192 68h2v2H192V68M194 68h2v2H194V68M196 68h2v2H196V68M198 68h2v2H198V68M200 68h2v2H200V68M206 68h2v2H206V68M12 70h2v2H12V70M14 70h2v2H14V70M18 70h2v2H18V70M22 70h2v2H22V70M24 70h2v2H24V70M26 70h2v2H26V70M28 70h2v2H28V70M30 70h2v2H30V70M36 70h2v2H36V70M40 70h2v2H40V70M44 70h2v2H44V70M46 70h2v2H46V70M58 70h2v2H58V70M60 70h2v2H60V70M64 70h2v2H64V70M70 70h2v2H70V70M72 70h2v2H72V70M74 70h2v2H74V70M76 70h2v2H76V70M78 70h2v2H78V70M80 70h2v2H80V70M82 70h2v2H82V70M88 70h2v2H88V70M94 70h2v2H94V70M96 70h2v2H96V70M98 70h2v2H98V70M100 70h2v2H100V70M104 70h2v2H104V70M112 70h2v2H112V70M116 70h2v2H116V70M118 70h2v2H118V70M122 70h2v2H122V70M126 70h2v2H126V70M132 70h2v2H132V70M138 70h2v2H138V70M142 70h2v2H142V70M144 70h2v2H144V70M146 70h2v2H146V70M148 70h2v2H148V70M150 70h2v2H150V70M162 70h2v2H162V70M166 70h2v2H166V70M180 70h2v2H180V70M182 70h2v2H182V70M184 70h2v2H184V70M192 70h2v2H192V70M194 70h2v2H194V70M198 70h2v2H198V70M202 70h2v2H202V70M204 70h2v2H204V70M8 72h2v2H8V72M10 72h2v2H10V72M20 72h2v2H20V72M26 72h2v2H26V72M30 72h2v2H30V72M34 72h2v2H34V72M36 72h2v2H36V72M38 72h2v2H38V72M40 72h2v2H40V72M44 72h2v2H44V72M56 72h2v2H56V72M60 72h2v2H60V72M62 72h2v2H62V72M66 72h2v2H66V72M68 72h2v2H68V72M72 72h2v2H72V72M76 72h2v2H76V72M80 72h2v2H80V72M84 72h2v2H84V72M88 72h2v2H88V72M90 72h2v2H90V72M94 72h2v2H94V72M96 72h2v2H96V72M98 72h2v2H98V72M100 72h2v2H100V72M108 72h2v2H108V72M110 72h2v2H110V72M112 72h2v2H112V72M114 72h2v2H114V72M116 72h2v2H116V72M118 72h2v2H118V72M120 72h2v2H120V72M122 72h2v2H122V72M124 72h2v2H124V72M132 72h2v2H132V72M138 72h2v2H138V72M142 72h2v2H142V72M156 72h2v2H156V72M160 72h2v2H160V72M162 72h2v2H162V72M164 72h2v2H164V72M166 72h2v2H166V72M172 72h2v2H172V72M174 72h2v2H174V72M192 72h2v2H192V72M194 72h2v2H194V72M196 72h2v2H196V72M198 72h2v2H198V72M204 72h2v2H204V72M208 72h2v2H208V72M8 74h2v2H8V74M12 74h2v2H12V74M16 74h2v2H16V74M18 74h2v2H18V74M24 74h2v2H24V74M34 74h2v2H34V74M38 74h2v2H38V74M48 74h2v2H48V74M50 74h2v2H50V74M68 74h2v2H68V74M70 74h2v2H70V74M72 74h2v2H72V74M78 74h2v2H78V74M84 74h2v2H84V74M88 74h2v2H88V74M90 74h2v2H90V74M100 74h2v2H100V74M104 74h2v2H104V74M110 74h2v2H110V74M114 74h2v2H114V74M116 74h2v2H116V74M122 74h2v2H122V74M124 74h2v2H124V74M126 74h2v2H126V74M134 74h2v2H134V74M146 74h2v2H146V74M148 74h2v2H148V74M150 74h2v2H150V74M156 74h2v2H156V74M158 74h2v2H158V74M162 74h2v2H162V74M174 74h2v2H174V74M188 74h2v2H188V74M194 74h2v2H194V74M196 74h2v2H196V74M200 74h2v2H200V74M202 74h2v2H202V74M208 74h2v2H208V74M8 76h2v2H8V76M12 76h2v2H12V76M14 76h2v2H14V76M16 76h2v2H16V76M18 76h2v2H18V76M20 76h2v2H20V76M26 76h2v2H26V76M30 76h2v2H30V76M34 76h2v2H34V76M38 76h2v2H38V76M40 76h2v2H40V76M44 76h2v2H44V76M50 76h2v2H50V76M52 76h2v2H52V76M54 76h2v2H54V76M58 76h2v2H58V76M62 76h2v2H62V76M66 76h2v2H66V76M68 76h2v2H68V76M70 76h2v2H70V76M72 76h2v2H72V76M80 76h2v2H80V76M84 76h2v2H84V76M86 76h2v2H86V76M96 76h2v2H96V76M98 76h2v2H98V76M110 76h2v2H110V76M112 76h2v2H112V76M120 76h2v2H120V76M122 76h2v2H122V76M124 76h2v2H124V76M130 76h2v2H130V76M132 76h2v2H132V76M136 76h2v2H136V76M140 76h2v2H140V76M144 76h2v2H144V76M150 76h2v2H150V76M152 76h2v2H152V76M154 76h2v2H154V76M156 76h2v2H156V76M162 76h2v2H162V76M170 76h2v2H170V76M176 76h2v2H176V76M180 76h2v2H180V76M182 76h2v2H182V76M186 76h2v2H186V76M190 76h2v2H190V76M194 76h2v2H194V76M208 76h2v2H208V76M10 78h2v2H10V78M14 78h2v2H14V78M18 78h2v2H18V78M32 78h2v2H32V78M40 78h2v2H40V78M44 78h2v2H44V78M46 78h2v2H46V78M50 78h2v2H50V78M52 78h2v2H52V78M56 78h2v2H56V78M60 78h2v2H60V78M66 78h2v2H66V78M72 78h2v2H72V78M74 78h2v2H74V78M76 78h2v2H76V78M78 78h2v2H78V78M80 78h2v2H80V78M82 78h2v2H82V78M84 78h2v2H84V78M88 78h2v2H88V78M90 78h2v2H90V78M92 78h2v2H92V78M94 78h2v2H94V78M104 78h2v2H104V78M106 78h2v2H106V78M110 78h2v2H110V78M116 78h2v2H116V78M118 78h2v2H118V78M124 78h2v2H124V78M126 78h2v2H126V78M128 78h2v2H128V78M130 78h2v2H130V78M132 78h2v2H132V78M134 78h2v2H134V78M136 78h2v2H136V78M138 78h2v2H138V78M140 78h2v2H140V78M144 78h2v2H144V78M146 78h2v2H146V78M148 78h2v2H148V78M150 78h2v2H150V78M152 78h2v2H152V78M154 78h2v2H154V78M160 78h2v2H160V78M162 78h2v2H162V78M172 78h2v2H172V78M174 78h2v2H174V78M176 78h2v2H176V78M178 78h2v2H178V78M184 78h2v2H184V78M190 78h2v2H190V78M196 78h2v2H196V78M200 78h2v2H200V78M204 78h2v2H204V78M206 78h2v2H206V78M208 78h2v2H208V78M16 80h2v2H16V80M18 80h2v2H18V80M20 80h2v2H20V80M22 80h2v2H22V80M26 80h2v2H26V80M28 80h2v2H28V80M30 80h2v2H30V80M32 80h2v2H32V80M34 80h2v2H34V80M38 80h2v2H38V80M40 80h2v2H40V80M48 80h2v2H48V80M50 80h2v2H50V80M52 80h2v2H52V80M54 80h2v2H54V80M56 80h2v2H56V80M58 80h2v2H58V80M60 80h2v2H60V80M62 80h2v2H62V80M68 80h2v2H68V80M72 80h2v2H72V80M74 80h2v2H74V80M76 80h2v2H76V80M78 80h2v2H78V80M80 80h2v2H80V80M84 80h2v2H84V80M90 80h2v2H90V80M96 80h2v2H96V80M102 80h2v2H102V80M104 80h2v2H104V80M106 80h2v2H106V80M116 80h2v2H116V80M122 80h2v2H122V80M128 80h2v2H128V80M130 80h2v2H130V80M138 80h2v2H138V80M140 80h2v2H140V80M144 80h2v2H144V80M146 80h2v2H146V80M152 80h2v2H152V80M162 80h2v2H162V80M164 80h2v2H164V80M172 80h2v2H172V80M178 80h2v2H178V80M184 80h2v2H184V80M186 80h2v2H186V80M192 80h2v2H192V80M194 80h2v2H194V80M196 80h2v2H196V80M198 80h2v2H198V80M200 80h2v2H200V80M206 80h2v2H206V80M10 82h2v2H10V82M12 82h2v2H12V82M18 82h2v2H18V82M22 82h2v2H22V82M24 82h2v2H24V82M26 82h2v2H26V82M28 82h2v2H28V82M42 82h2v2H42V82M44 82h2v2H44V82M52 82h2v2H52V82M56 82h2v2H56V82M58 82h2v2H58V82M60 82h2v2H60V82M62 82h2v2H62V82M64 82h2v2H64V82M66 82h2v2H66V82M70 82h2v2H70V82M78 82h2v2H78V82M82 82h2v2H82V82M90 82h2v2H90V82M96 82h2v2H96V82M100 82h2v2H100V82M104 82h2v2H104V82M108 82h2v2H108V82M110 82h2v2H110V82M112 82h2v2H112V82M114 82h2v2H114V82M116 82h2v2H116V82M120 82h2v2H120V82M126 82h2v2H126V82M130 82h2v2H130V82M134 82h2v2H134V82M136 82h2v2H136V82M140 82h2v2H140V82M142 82h2v2H142V82M144 82h2v2H144V82M146 82h2v2H146V82M148 82h2v2H148V82M150 82h2v2H150V82M154 82h2v2H154V82M156 82h2v2H156V82M162 82h2v2H162V82M164 82h2v2H164V82M168 82h2v2H168V82M182 82h2v2H182V82M184 82h2v2H184V82M188 82h2v2H188V82M190 82h2v2H190V82M198 82h2v2H198V82M8 84h2v2H8V84M12 84h2v2H12V84M18 84h2v2H18V84M20 84h2v2H20V84M22 84h2v2H22V84M26 84h2v2H26V84M28 84h2v2H28V84M32 84h2v2H32V84M34 84h2v2H34V84M38 84h2v2H38V84M44 84h2v2H44V84M48 84h2v2H48V84M54 84h2v2H54V84M66 84h2v2H66V84M68 84h2v2H68V84M72 84h2v2H72V84M74 84h2v2H74V84M78 84h2v2H78V84M80 84h2v2H80V84M82 84h2v2H82V84M84 84h2v2H84V84M86 84h2v2H86V84M90 84h2v2H90V84M94 84h2v2H94V84M98 84h2v2H98V84M100 84h2v2H100V84M104 84h2v2H104V84M106 84h2v2H106V84M110 84h2v2H110V84M112 84h2v2H112V84M118 84h2v2H118V84M122 84h2v2H122V84M124 84h2v2H124V84M128 84h2v2H128V84M134 84h2v2H134V84M138 84h2v2H138V84M146 84h2v2H146V84M148 84h2v2H148V84M158 84h2v2H158V84M160 84h2v2H160V84M162 84h2v2H162V84M164 84h2v2H164V84M170 84h2v2H170V84M172 84h2v2H172V84M174 84h2v2H174V84M176 84h2v2H176V84M180 84h2v2H180V84M184 84h2v2H184V84M192 84h2v2H192V84M196 84h2v2H196V84M198 84h2v2H198V84M202 84h2v2H202V84M208 84h2v2H208V84M8 86h2v2H8V86M12 86h2v2H12V86M24 86h2v2H24V86M26 86h2v2H26V86M32 86h2v2H32V86M34 86h2v2H34V86M40 86h2v2H40V86M42 86h2v2H42V86M44 86h2v2H44V86M48 86h2v2H48V86M50 86h2v2H50V86M54 86h2v2H54V86M60 86h2v2H60V86M62 86h2v2H62V86M78 86h2v2H78V86M80 86h2v2H80V86M84 86h2v2H84V86M86 86h2v2H86V86M88 86h2v2H88V86M94 86h2v2H94V86M96 86h2v2H96V86M98 86h2v2H98V86M102 86h2v2H102V86M110 86h2v2H110V86M112 86h2v2H112V86M116 86h2v2H116V86M124 86h2v2H124V86M126 86h2v2H126V86M128 86h2v2H128V86M130 86h2v2H130V86M132 86h2v2H132V86M136 86h2v2H136V86M146 86h2v2H146V86M148 86h2v2H148V86M150 86h2v2H150V86M152 86h2v2H152V86M156 86h2v2H156V86M158 86h2v2H158V86M160 86h2v2H160V86M164 86h2v2H164V86M166 86h2v2H166V86M170 86h2v2H170V86M172 86h2v2H172V86M178 86h2v2H178V86M180 86h2v2H180V86M182 86h2v2H182V86M192 86h2v2H192V86M194 86h2v2H194V86M200 86h2v2H200V86M202 86h2v2H202V86M12 88h2v2H12V88M20 88h2v2H20V88M22 88h2v2H22V88M24 88h2v2H24V88M26 88h2v2H26V88M28 88h2v2H28V88M30 88h2v2H30V88M34 88h2v2H34V88M44 88h2v2H44V88M58 88h2v2H58V88M60 88h2v2H60V88M64 88h2v2H64V88M66 88h2v2H66V88M70 88h2v2H70V88M76 88h2v2H76V88M84 88h2v2H84V88M86 88h2v2H86V88M98 88h2v2H98V88M102 88h2v2H102V88M106 88h2v2H106V88M108 88h2v2H108V88M110 88h2v2H110V88M114 88h2v2H114V88M118 88h2v2H118V88M120 88h2v2H120V88M122 88h2v2H122V88M126 88h2v2H126V88M130 88h2v2H130V88M136 88h2v2H136V88M142 88h2v2H142V88M146 88h2v2H146V88M150 88h2v2H150V88M154 88h2v2H154V88M158 88h2v2H158V88M162 88h2v2H162V88M166 88h2v2H166V88M168 88h2v2H168V88M170 88h2v2H170V88M178 88h2v2H178V88M180 88h2v2H180V88M182 88h2v2H182V88M184 88h2v2H184V88M190 88h2v2H190V88M200 88h2v2H200V88M206 88h2v2H206V88M8 90h2v2H8V90M12 90h2v2H12V90M16 90h2v2H16V90M22 90h2v2H22V90M24 90h2v2H24V90M30 90h2v2H30V90M34 90h2v2H34V90M38 90h2v2H38V90M42 90h2v2H42V90M46 90h2v2H46V90M50 90h2v2H50V90M52 90h2v2H52V90M54 90h2v2H54V90M58 90h2v2H58V90M62 90h2v2H62V90M72 90h2v2H72V90M82 90h2v2H82V90M92 90h2v2H92V90M96 90h2v2H96V90M98 90h2v2H98V90M100 90h2v2H100V90M106 90h2v2H106V90M112 90h2v2H112V90M116 90h2v2H116V90M118 90h2v2H118V90M130 90h2v2H130V90M134 90h2v2H134V90M136 90h2v2H136V90M140 90h2v2H140V90M144 90h2v2H144V90M146 90h2v2H146V90M148 90h2v2H148V90M160 90h2v2H160V90M166 90h2v2H166V90M168 90h2v2H168V90M170 90h2v2H170V90M174 90h2v2H174V90M180 90h2v2H180V90M188 90h2v2H188V90M190 90h2v2H190V90M196 90h2v2H196V90M200 90h2v2H200V90M202 90h2v2H202V90M208 90h2v2H208V90M8 92h2v2H8V92M10 92h2v2H10V92M18 92h2v2H18V92M20 92h2v2H20V92M26 92h2v2H26V92M36 92h2v2H36V92M38 92h2v2H38V92M42 92h2v2H42V92M44 92h2v2H44V92M46 92h2v2H46V92M50 92h2v2H50V92M56 92h2v2H56V92M62 92h2v2H62V92M64 92h2v2H64V92M74 92h2v2H74V92M78 92h2v2H78V92M86 92h2v2H86V92M90 92h2v2H90V92M92 92h2v2H92V92M94 92h2v2H94V92M104 92h2v2H104V92M112 92h2v2H112V92M114 92h2v2H114V92M116 92h2v2H116V92M124 92h2v2H124V92M126 92h2v2H126V92M128 92h2v2H128V92M130 92h2v2H130V92M136 92h2v2H136V92M138 92h2v2H138V92M140 92h2v2H140V92M148 92h2v2H148V92M150 92h2v2H150V92M152 92h2v2H152V92M156 92h2v2H156V92M162 92h2v2H162V92M164 92h2v2H164V92M166 92h2v2H166V92M176 92h2v2H176V92M178 92h2v2H178V92M182 92h2v2H182V92M186 92h2v2H186V92M190 92h2v2H190V92M192 92h2v2H192V92M194 92h2v2H194V92M198 92h2v2H198V92M200 92h2v2H200V92M206 92h2v2H206V92M10 94h2v2H10V94M12 94h2v2H12V94M14 94h2v2H14V94M24 94h2v2H24V94M26 94h2v2H26V94M28 94h2v2H28V94M34 94h2v2H34V94M38 94h2v2H38V94M40 94h2v2H40V94M42 94h2v2H42V94M44 94h2v2H44V94M46 94h2v2H46V94M54 94h2v2H54V94M58 94h2v2H58V94M62 94h2v2H62V94M66 94h2v2H66V94M68 94h2v2H68V94M70 94h2v2H70V94M76 94h2v2H76V94M80 94h2v2H80V94M82 94h2v2H82V94M86 94h2v2H86V94M88 94h2v2H88V94M94 94h2v2H94V94M96 94h2v2H96V94M100 94h2v2H100V94M102 94h2v2H102V94M104 94h2v2H104V94M108 94h2v2H108V94M114 94h2v2H114V94M116 94h2v2H116V94M118 94h2v2H118V94M136 94h2v2H136V94M138 94h2v2H138V94M144 94h2v2H144V94M148 94h2v2H148V94M154 94h2v2H154V94M164 94h2v2H164V94M170 94h2v2H170V94M172 94h2v2H172V94M174 94h2v2H174V94M184 94h2v2H184V94M188 94h2v2H188V94M192 94h2v2H192V94M200 94h2v2H200V94M202 94h2v2H202V94M204 94h2v2H204V94M206 94h2v2H206V94M14 96h2v2H14V96M16 96h2v2H16V96M18 96h2v2H18V96M20 96h2v2H20V96M26 96h2v2H26V96M30 96h2v2H30V96M34 96h2v2H34V96M36 96h2v2H36V96M38 96h2v2H38V96M50 96h2v2H50V96M54 96h2v2H54V96M58 96h2v2H58V96M60 96h2v2H60V96M64 96h2v2H64V96M66 96h2v2H66V96M68 96h2v2H68V96M78 96h2v2H78V96M80 96h2v2H80V96M82 96h2v2H82V96M86 96h2v2H86V96M90 96h2v2H90V96M94 96h2v2H94V96M100 96h2v2H100V96M102 96h2v2H102V96M106 96h2v2H106V96M110 96h2v2H110V96M112 96h2v2H112V96M114 96h2v2H114V96M118 96h2v2H118V96M120 96h2v2H120V96M126 96h2v2H126V96M134 96h2v2H134V96M136 96h2v2H136V96M138 96h2v2H138V96M144 96h2v2H144V96M148 96h2v2H148V96M150 96h2v2H150V96M156 96h2v2H156V96M158 96h2v2H158V96M162 96h2v2H162V96M170 96h2v2H170V96M174 96h2v2H174V96M184 96h2v2H184V96M186 96h2v2H186V96M190 96h2v2H190V96M192 96h2v2H192V96M196 96h2v2H196V96M198 96h2v2H198V96M202 96h2v2H202V96M208 96h2v2H208V96M10 98h2v2H10V98M12 98h2v2H12V98M24 98h2v2H24V98M26 98h2v2H26V98M28 98h2v2H28V98M36 98h2v2H36V98M42 98h2v2H42V98M50 98h2v2H50V98M54 98h2v2H54V98M58 98h2v2H58V98M60 98h2v2H60V98M62 98h2v2H62V98M64 98h2v2H64V98M66 98h2v2H66V98M74 98h2v2H74V98M86 98h2v2H86V98M88 98h2v2H88V98M92 98h2v2H92V98M94 98h2v2H94V98M96 98h2v2H96V98M102 98h2v2H102V98M106 98h2v2H106V98M108 98h2v2H108V98M116 98h2v2H116V98M118 98h2v2H118V98M120 98h2v2H120V98M122 98h2v2H122V98M132 98h2v2H132V98M138 98h2v2H138V98M140 98h2v2H140V98M144 98h2v2H144V98M146 98h2v2H146V98M148 98h2v2H148V98M154 98h2v2H154V98M156 98h2v2H156V98M158 98h2v2H158V98M160 98h2v2H160V98M170 98h2v2H170V98M180 98h2v2H180V98M182 98h2v2H182V98M188 98h2v2H188V98M190 98h2v2H190V98M194 98h2v2H194V98M200 98h2v2H200V98M206 98h2v2H206V98M14 100h2v2H14V100M16 100h2v2H16V100M20 100h2v2H20V100M22 100h2v2H22V100M26 100h2v2H26V100M30 100h2v2H30V100M34 100h2v2H34V100M44 100h2v2H44V100M48 100h2v2H48V100M50 100h2v2H50V100M52 100h2v2H52V100M56 100h2v2H56V100M58 100h2v2H58V100M66 100h2v2H66V100M68 100h2v2H68V100M76 100h2v2H76V100M78 100h2v2H78V100M80 100h2v2H80V100M90 100h2v2H90V100M94 100h2v2H94V100M96 100h2v2H96V100M100 100h2v2H100V100M102 100h2v2H102V100M104 100h2v2H104V100M106 100h2v2H106V100M114 100h2v2H114V100M116 100h2v2H116V100M120 100h2v2H120V100M122 100h2v2H122V100M130 100h2v2H130V100M132 100h2v2H132V100M144 100h2v2H144V100M146 100h2v2H146V100M148 100h2v2H148V100M154 100h2v2H154V100M156 100h2v2H156V100M158 100h2v2H158V100M164 100h2v2H164V100M166 100h2v2H166V100M168 100h2v2H168V100M170 100h2v2H170V100M176 100h2v2H176V100M178 100h2v2H178V100M180 100h2v2H180V100M182 100h2v2H182V100M186 100h2v2H186V100M196 100h2v2H196V100M204 100h2v2H204V100M206 100h2v2H206V100M8 102h2v2H8V102M14 102h2v2H14V102M22 102h2v2H22V102M30 102h2v2H30V102M34 102h2v2H34V102M38 102h2v2H38V102M42 102h2v2H42V102M44 102h2v2H44V102M52 102h2v2H52V102M58 102h2v2H58V102M60 102h2v2H60V102M64 102h2v2H64V102M68 102h2v2H68V102M70 102h2v2H70V102M72 102h2v2H72V102M76 102h2v2H76V102M82 102h2v2H82V102M84 102h2v2H84V102M86 102h2v2H86V102M90 102h2v2H90V102M94 102h2v2H94V102M98 102h2v2H98V102M106 102h2v2H106V102M112 102h2v2H112V102M136 102h2v2H136V102M140 102h2v2H140V102M142 102h2v2H142V102M144 102h2v2H144V102M146 102h2v2H146V102M148 102h2v2H148V102M152 102h2v2H152V102M158 102h2v2H158V102M168 102h2v2H168V102M176 102h2v2H176V102M178 102h2v2H178V102M182 102h2v2H182V102M188 102h2v2H188V102M190 102h2v2H190V102M192 102h2v2H192V102M194 102h2v2H194V102M202 102h2v2H202V102M206 102h2v2H206V102M208 102h2v2H208V102M8 104h2v2H8V104M16 104h2v2H16V104M18 104h2v2H18V104M20 104h2v2H20V104M22 104h2v2H22V104M24 104h2v2H24V104M26 104h2v2H26V104M30 104h2v2H30V104M32 104h2v2H32V104M34 104h2v2H34V104M40 104h2v2H40V104M42 104h2v2H42V104M44 104h2v2H44V104M46 104h2v2H46V104M50 104h2v2H50V104M52 104h2v2H52V104M56 104h2v2H56V104M60 104h2v2H60V104M62 104h2v2H62V104M64 104h2v2H64V104M66 104h2v2H66V104M68 104h2v2H68V104M72 104h2v2H72V104M78 104h2v2H78V104M80 104h2v2H80V104M86 104h2v2H86V104M88 104h2v2H88V104M92 104h2v2H92V104M98 104h2v2H98V104M104 104h2v2H104V104M106 104h2v2H106V104M108 104h2v2H108V104M110 104h2v2H110V104M112 104h2v2H112V104M116 104h2v2H116V104M120 104h2v2H120V104M122 104h2v2H122V104M126 104h2v2H126V104M128 104h2v2H128V104M130 104h2v2H130V104M140 104h2v2H140V104M148 104h2v2H148V104M150 104h2v2H150V104M152 104h2v2H152V104M154 104h2v2H154V104M156 104h2v2H156V104M166 104h2v2H166V104M174 104h2v2H174V104M176 104h2v2H176V104M178 104h2v2H178V104M184 104h2v2H184V104M186 104h2v2H186V104M188 104h2v2H188V104M192 104h2v2H192V104M194 104h2v2H194V104M196 104h2v2H196V104M198 104h2v2H198V104M200 104h2v2H200V104M206 104h2v2H206V104M16 106h2v2H16V106M24 106h2v2H24V106M26 106h2v2H26V106M30 106h2v2H30V106M32 106h2v2H32V106M34 106h2v2H34V106M36 106h2v2H36V106M40 106h2v2H40V106M44 106h2v2H44V106M52 106h2v2H52V106M56 106h2v2H56V106M58 106h2v2H58V106M60 106h2v2H60V106M68 106h2v2H68V106M70 106h2v2H70V106M74 106h2v2H74V106M76 106h2v2H76V106M78 106h2v2H78V106M80 106h2v2H80V106M84 106h2v2H84V106M86 106h2v2H86V106M90 106h2v2H90V106M94 106h2v2H94V106M98 106h2v2H98V106M100 106h2v2H100V106M104 106h2v2H104V106M112 106h2v2H112V106M114 106h2v2H114V106M118 106h2v2H118V106M120 106h2v2H120V106M126 106h2v2H126V106M132 106h2v2H132V106M136 106h2v2H136V106M144 106h2v2H144V106M146 106h2v2H146V106M148 106h2v2H148V106M156 106h2v2H156V106M162 106h2v2H162V106M166 106h2v2H166V106M172 106h2v2H172V106M176 106h2v2H176V106M178 106h2v2H178V106M180 106h2v2H180V106M184 106h2v2H184V106M186 106h2v2H186V106M188 106h2v2H188V106M192 106h2v2H192V106M200 106h2v2H200V106M202 106h2v2H202V106M208 106h2v2H208V106M10 108h2v2H10V108M14 108h2v2H14V108M16 108h2v2H16V108M20 108h2v2H20V108M24 108h2v2H24V108M26 108h2v2H26V108M32 108h2v2H32V108M34 108h2v2H34V108M36 108h2v2H36V108M38 108h2v2H38V108M40 108h2v2H40V108M44 108h2v2H44V108M48 108h2v2H48V108M50 108h2v2H50V108M52 108h2v2H52V108M56 108h2v2H56V108M58 108h2v2H58V108M60 108h2v2H60V108M64 108h2v2H64V108M68 108h2v2H68V108M70 108h2v2H70V108M72 108h2v2H72V108M74 108h2v2H74V108M76 108h2v2H76V108M82 108h2v2H82V108M84 108h2v2H84V108M98 108h2v2H98V108M100 108h2v2H100V108M104 108h2v2H104V108M108 108h2v2H108V108M112 108h2v2H112V108M118 108h2v2H118V108M120 108h2v2H120V108M122 108h2v2H122V108M124 108h2v2H124V108M126 108h2v2H126V108M128 108h2v2H128V108M130 108h2v2H130V108M136 108h2v2H136V108M140 108h2v2H140V108M148 108h2v2H148V108M152 108h2v2H152V108M156 108h2v2H156V108M158 108h2v2H158V108M160 108h2v2H160V108M162 108h2v2H162V108M168 108h2v2H168V108M170 108h2v2H170V108M172 108h2v2H172V108M182 108h2v2H182V108M186 108h2v2H186V108M188 108h2v2H188V108M190 108h2v2H190V108M192 108h2v2H192V108M196 108h2v2H196V108M200 108h2v2H200V108M202 108h2v2H202V108M208 108h2v2H208V108M8 110h2v2H8V110M10 110h2v2H10V110M12 110h2v2H12V110M16 110h2v2H16V110M24 110h2v2H24V110M26 110h2v2H26V110M28 110h2v2H28V110M34 110h2v2H34V110M36 110h2v2H36V110M40 110h2v2H40V110M44 110h2v2H44V110M46 110h2v2H46V110M52 110h2v2H52V110M54 110h2v2H54V110M56 110h2v2H56V110M60 110h2v2H60V110M68 110h2v2H68V110M74 110h2v2H74V110M82 110h2v2H82V110M84 110h2v2H84V110M86 110h2v2H86V110M90 110h2v2H90V110M104 110h2v2H104V110M112 110h2v2H112V110M116 110h2v2H116V110M118 110h2v2H118V110M122 110h2v2H122V110M126 110h2v2H126V110M130 110h2v2H130V110M136 110h2v2H136V110M138 110h2v2H138V110M142 110h2v2H142V110M144 110h2v2H144V110M146 110h2v2H146V110M148 110h2v2H148V110M156 110h2v2H156V110M158 110h2v2H158V110M168 110h2v2H168V110M174 110h2v2H174V110M180 110h2v2H180V110M182 110h2v2H182V110M184 110h2v2H184V110M188 110h2v2H188V110M192 110h2v2H192V110M200 110h2v2H200V110M204 110h2v2H204V110M208 110h2v2H208V110M14 112h2v2H14V112M16 112h2v2H16V112M18 112h2v2H18V112M20 112h2v2H20V112M22 112h2v2H22V112M24 112h2v2H24V112M26 112h2v2H26V112M28 112h2v2H28V112M38 112h2v2H38V112M44 112h2v2H44V112M46 112h2v2H46V112M48 112h2v2H48V112M52 112h2v2H52V112M58 112h2v2H58V112M60 112h2v2H60V112M62 112h2v2H62V112M64 112h2v2H64V112M66 112h2v2H66V112M68 112h2v2H68V112M70 112h2v2H70V112M74 112h2v2H74V112M84 112h2v2H84V112M90 112h2v2H90V112M92 112h2v2H92V112M102 112h2v2H102V112M104 112h2v2H104V112M106 112h2v2H106V112M108 112h2v2H108V112M110 112h2v2H110V112M112 112h2v2H112V112M114 112h2v2H114V112M118 112h2v2H118V112M126 112h2v2H126V112M128 112h2v2H128V112M132 112h2v2H132V112M136 112h2v2H136V112M138 112h2v2H138V112M142 112h2v2H142V112M148 112h2v2H148V112M150 112h2v2H150V112M152 112h2v2H152V112M154 112h2v2H154V112M156 112h2v2H156V112M158 112h2v2H158V112M160 112h2v2H160V112M162 112h2v2H162V112M166 112h2v2H166V112M168 112h2v2H168V112M170 112h2v2H170V112M176 112h2v2H176V112M180 112h2v2H180V112M186 112h2v2H186V112M188 112h2v2H188V112M192 112h2v2H192V112M194 112h2v2H194V112M196 112h2v2H196V112M198 112h2v2H198V112M200 112h2v2H200V112M202 112h2v2H202V112M206 112h2v2H206V112M12 114h2v2H12V114M14 114h2v2H14V114M18 114h2v2H18V114M22 114h2v2H22V114M24 114h2v2H24V114M26 114h2v2H26V114M28 114h2v2H28V114M34 114h2v2H34V114M42 114h2v2H42V114M48 114h2v2H48V114M52 114h2v2H52V114M54 114h2v2H54V114M58 114h2v2H58V114M66 114h2v2H66V114M68 114h2v2H68V114M70 114h2v2H70V114M84 114h2v2H84V114M86 114h2v2H86V114M88 114h2v2H88V114M90 114h2v2H90V114M92 114h2v2H92V114M94 114h2v2H94V114M100 114h2v2H100V114M106 114h2v2H106V114M108 114h2v2H108V114M110 114h2v2H110V114M112 114h2v2H112V114M124 114h2v2H124V114M126 114h2v2H126V114M130 114h2v2H130V114M134 114h2v2H134V114M138 114h2v2H138V114M140 114h2v2H140V114M142 114h2v2H142V114M144 114h2v2H144V114M148 114h2v2H148V114M150 114h2v2H150V114M154 114h2v2H154V114M156 114h2v2H156V114M166 114h2v2H166V114M172 114h2v2H172V114M176 114h2v2H176V114M182 114h2v2H182V114M186 114h2v2H186V114M188 114h2v2H188V114M194 114h2v2H194V114M198 114h2v2H198V114M200 114h2v2H200V114M202 114h2v2H202V114M204 114h2v2H204V114M16 116h2v2H16V116M20 116h2v2H20V116M22 116h2v2H22V116M34 116h2v2H34V116M36 116h2v2H36V116M38 116h2v2H38V116M40 116h2v2H40V116M42 116h2v2H42V116M44 116h2v2H44V116M46 116h2v2H46V116M48 116h2v2H48V116M50 116h2v2H50V116M54 116h2v2H54V116M58 116h2v2H58V116M60 116h2v2H60V116M64 116h2v2H64V116M66 116h2v2H66V116M74 116h2v2H74V116M78 116h2v2H78V116M82 116h2v2H82V116M84 116h2v2H84V116M88 116h2v2H88V116M92 116h2v2H92V116M94 116h2v2H94V116M96 116h2v2H96V116M98 116h2v2H98V116M100 116h2v2H100V116M104 116h2v2H104V116M106 116h2v2H106V116M110 116h2v2H110V116M116 116h2v2H116V116M118 116h2v2H118V116M120 116h2v2H120V116M122 116h2v2H122V116M134 116h2v2H134V116M138 116h2v2H138V116M140 116h2v2H140V116M152 116h2v2H152V116M160 116h2v2H160V116M162 116h2v2H162V116M164 116h2v2H164V116M170 116h2v2H170V116M176 116h2v2H176V116M180 116h2v2H180V116M182 116h2v2H182V116M186 116h2v2H186V116M194 116h2v2H194V116M206 116h2v2H206V116M8 118h2v2H8V118M10 118h2v2H10V118M12 118h2v2H12V118M14 118h2v2H14V118M16 118h2v2H16V118M18 118h2v2H18V118M26 118h2v2H26V118M28 118h2v2H28V118M30 118h2v2H30V118M38 118h2v2H38V118M40 118h2v2H40V118M44 118h2v2H44V118M46 118h2v2H46V118M48 118h2v2H48V118M50 118h2v2H50V118M52 118h2v2H52V118M54 118h2v2H54V118M56 118h2v2H56V118M66 118h2v2H66V118M70 118h2v2H70V118M72 118h2v2H72V118M80 118h2v2H80V118M82 118h2v2H82V118M84 118h2v2H84V118M86 118h2v2H86V118M88 118h2v2H88V118M90 118h2v2H90V118M94 118h2v2H94V118M96 118h2v2H96V118M114 118h2v2H114V118M118 118h2v2H118V118M126 118h2v2H126V118M130 118h2v2H130V118M134 118h2v2H134V118M136 118h2v2H136V118M144 118h2v2H144V118M148 118h2v2H148V118M152 118h2v2H152V118M160 118h2v2H160V118M162 118h2v2H162V118M168 118h2v2H168V118M170 118h2v2H170V118M174 118h2v2H174V118M178 118h2v2H178V118M186 118h2v2H186V118M192 118h2v2H192V118M194 118h2v2H194V118M196 118h2v2H196V118M202 118h2v2H202V118M204 118h2v2H204V118M20 120h2v2H20V120M22 120h2v2H22V120M24 120h2v2H24V120M26 120h2v2H26V120M40 120h2v2H40V120M44 120h2v2H44V120M46 120h2v2H46V120M50 120h2v2H50V120M52 120h2v2H52V120M54 120h2v2H54V120M56 120h2v2H56V120M58 120h2v2H58V120M64 120h2v2H64V120M76 120h2v2H76V120M90 120h2v2H90V120M92 120h2v2H92V120M96 120h2v2H96V120M98 120h2v2H98V120M108 120h2v2H108V120M110 120h2v2H110V120M112 120h2v2H112V120M116 120h2v2H116V120M118 120h2v2H118V120M120 120h2v2H120V120M122 120h2v2H122V120M126 120h2v2H126V120M128 120h2v2H128V120M130 120h2v2H130V120M132 120h2v2H132V120M142 120h2v2H142V120M146 120h2v2H146V120M148 120h2v2H148V120M150 120h2v2H150V120M152 120h2v2H152V120M154 120h2v2H154V120M158 120h2v2H158V120M160 120h2v2H160V120M172 120h2v2H172V120M178 120h2v2H178V120M184 120h2v2H184V120M186 120h2v2H186V120M194 120h2v2H194V120M196 120h2v2H196V120M198 120h2v2H198V120M202 120h2v2H202V120M206 120h2v2H206V120M8 122h2v2H8V122M10 122h2v2H10V122M14 122h2v2H14V122M22 122h2v2H22V122M26 122h2v2H26V122M28 122h2v2H28V122M32 122h2v2H32V122M34 122h2v2H34V122M40 122h2v2H40V122M44 122h2v2H44V122M46 122h2v2H46V122M50 122h2v2H50V122M52 122h2v2H52V122M54 122h2v2H54V122M58 122h2v2H58V122M60 122h2v2H60V122M64 122h2v2H64V122M66 122h2v2H66V122M68 122h2v2H68V122M70 122h2v2H70V122M72 122h2v2H72V122M74 122h2v2H74V122M76 122h2v2H76V122M78 122h2v2H78V122M82 122h2v2H82V122M84 122h2v2H84V122M90 122h2v2H90V122M92 122h2v2H92V122M94 122h2v2H94V122M96 122h2v2H96V122M98 122h2v2H98V122M104 122h2v2H104V122M106 122h2v2H106V122M108 122h2v2H108V122M114 122h2v2H114V122M118 122h2v2H118V122M122 122h2v2H122V122M126 122h2v2H126V122M130 122h2v2H130V122M132 122h2v2H132V122M134 122h2v2H134V122M140 122h2v2H140V122M142 122h2v2H142V122M146 122h2v2H146V122M148 122h2v2H148V122M150 122h2v2H150V122M152 122h2v2H152V122M160 122h2v2H160V122M164 122h2v2H164V122M166 122h2v2H166V122M170 122h2v2H170V122M176 122h2v2H176V122M178 122h2v2H178V122M180 122h2v2H180V122M182 122h2v2H182V122M186 122h2v2H186V122M188 122h2v2H188V122M190 122h2v2H190V122M194 122h2v2H194V122M196 122h2v2H196V122M200 122h2v2H200V122M202 122h2v2H202V122M16 124h2v2H16V124M18 124h2v2H18V124M20 124h2v2H20V124M28 124h2v2H28V124M30 124h2v2H30V124M40 124h2v2H40V124M42 124h2v2H42V124M48 124h2v2H48V124M50 124h2v2H50V124M52 124h2v2H52V124M54 124h2v2H54V124M60 124h2v2H60V124M62 124h2v2H62V124M64 124h2v2H64V124M70 124h2v2H70V124M80 124h2v2H80V124M88 124h2v2H88V124M92 124h2v2H92V124M96 124h2v2H96V124M100 124h2v2H100V124M106 124h2v2H106V124M108 124h2v2H108V124M116 124h2v2H116V124M120 124h2v2H120V124M124 124h2v2H124V124M126 124h2v2H126V124M132 124h2v2H132V124M138 124h2v2H138V124M140 124h2v2H140V124M142 124h2v2H142V124M144 124h2v2H144V124M146 124h2v2H146V124M148 124h2v2H148V124M152 124h2v2H152V124M156 124h2v2H156V124M162 124h2v2H162V124M166 124h2v2H166V124M174 124h2v2H174V124M178 124h2v2H178V124M180 124h2v2H180V124M186 124h2v2H186V124M188 124h2v2H188V124M192 124h2v2H192V124M194 124h2v2H194V124M196 124h2v2H196V124M200 124h2v2H200V124M206 124h2v2H206V124M208 124h2v2H208V124M12 126h2v2H12V126M16 126h2v2H16V126M26 126h2v2H26V126M32 126h2v2H32V126M36 126h2v2H36V126M38 126h2v2H38V126M40 126h2v2H40V126M50 126h2v2H50V126M52 126h2v2H52V126M56 126h2v2H56V126M58 126h2v2H58V126M60 126h2v2H60V126M64 126h2v2H64V126M70 126h2v2H70V126M80 126h2v2H80V126M84 126h2v2H84V126M88 126h2v2H88V126M96 126h2v2H96V126M98 126h2v2H98V126M100 126h2v2H100V126M102 126h2v2H102V126M106 126h2v2H106V126M118 126h2v2H118V126M122 126h2v2H122V126M130 126h2v2H130V126M136 126h2v2H136V126M144 126h2v2H144V126M148 126h2v2H148V126M150 126h2v2H150V126M154 126h2v2H154V126M156 126h2v2H156V126M160 126h2v2H160V126M166 126h2v2H166V126M168 126h2v2H168V126M170 126h2v2H170V126M182 126h2v2H182V126M184 126h2v2H184V126M186 126h2v2H186V126M188 126h2v2H188V126M190 126h2v2H190V126M192 126h2v2H192V126M198 126h2v2H198V126M208 126h2v2H208V126M8 128h2v2H8V128M20 128h2v2H20V128M22 128h2v2H22V128M30 128h2v2H30V128M32 128h2v2H32V128M38 128h2v2H38V128M42 128h2v2H42V128M50 128h2v2H50V128M54 128h2v2H54V128M56 128h2v2H56V128M58 128h2v2H58V128M60 128h2v2H60V128M64 128h2v2H64V128M66 128h2v2H66V128M68 128h2v2H68V128M72 128h2v2H72V128M76 128h2v2H76V128M78 128h2v2H78V128M82 128h2v2H82V128M84 128h2v2H84V128M88 128h2v2H88V128M96 128h2v2H96V128M104 128h2v2H104V128M110 128h2v2H110V128M114 128h2v2H114V128M122 128h2v2H122V128M124 128h2v2H124V128M128 128h2v2H128V128M130 128h2v2H130V128M132 128h2v2H132V128M134 128h2v2H134V128M138 128h2v2H138V128M146 128h2v2H146V128M148 128h2v2H148V128M154 128h2v2H154V128M158 128h2v2H158V128M162 128h2v2H162V128M170 128h2v2H170V128M172 128h2v2H172V128M176 128h2v2H176V128M182 128h2v2H182V128M200 128h2v2H200V128M206 128h2v2H206V128M8 130h2v2H8V130M22 130h2v2H22V130M30 130h2v2H30V130M32 130h2v2H32V130M34 130h2v2H34V130M36 130h2v2H36V130M42 130h2v2H42V130M46 130h2v2H46V130M48 130h2v2H48V130M52 130h2v2H52V130M54 130h2v2H54V130M58 130h2v2H58V130M60 130h2v2H60V130M62 130h2v2H62V130M66 130h2v2H66V130M74 130h2v2H74V130M76 130h2v2H76V130M86 130h2v2H86V130M88 130h2v2H88V130M90 130h2v2H90V130M96 130h2v2H96V130M98 130h2v2H98V130M102 130h2v2H102V130M104 130h2v2H104V130M110 130h2v2H110V130M112 130h2v2H112V130M118 130h2v2H118V130M120 130h2v2H120V130M122 130h2v2H122V130M124 130h2v2H124V130M126 130h2v2H126V130M130 130h2v2H130V130M132 130h2v2H132V130M138 130h2v2H138V130M144 130h2v2H144V130M158 130h2v2H158V130M162 130h2v2H162V130M166 130h2v2H166V130M170 130h2v2H170V130M172 130h2v2H172V130M174 130h2v2H174V130M180 130h2v2H180V130M186 130h2v2H186V130M190 130h2v2H190V130M198 130h2v2H198V130M202 130h2v2H202V130M204 130h2v2H204V130M208 130h2v2H208V130M10 132h2v2H10V132M14 132h2v2H14V132M20 132h2v2H20V132M28 132h2v2H28V132M30 132h2v2H30V132M34 132h2v2H34V132M36 132h2v2H36V132M38 132h2v2H38V132M44 132h2v2H44V132M50 132h2v2H50V132M54 132h2v2H54V132M58 132h2v2H58V132M60 132h2v2H60V132M64 132h2v2H64V132M68 132h2v2H68V132M74 132h2v2H74V132M76 132h2v2H76V132M82 132h2v2H82V132M84 132h2v2H84V132M88 132h2v2H88V132M90 132h2v2H90V132M94 132h2v2H94V132M100 132h2v2H100V132M110 132h2v2H110V132M112 132h2v2H112V132M116 132h2v2H116V132M118 132h2v2H118V132M122 132h2v2H122V132M126 132h2v2H126V132M132 132h2v2H132V132M136 132h2v2H136V132M140 132h2v2H140V132M142 132h2v2H142V132M144 132h2v2H144V132M146 132h2v2H146V132M148 132h2v2H148V132M164 132h2v2H164V132M172 132h2v2H172V132M178 132h2v2H178V132M180 132h2v2H180V132M196 132h2v2H196V132M198 132h2v2H198V132M200 132h2v2H200V132M206 132h2v2H206V132M208 132h2v2H208V132M14 134h2v2H14V134M16 134h2v2H16V134M22 134h2v2H22V134M24 134h2v2H24V134M28 134h2v2H28V134M30 134h2v2H30V134M32 134h2v2H32V134M34 134h2v2H34V134M38 134h2v2H38V134M42 134h2v2H42V134M46 134h2v2H46V134M58 134h2v2H58V134M62 134h2v2H62V134M68 134h2v2H68V134M76 134h2v2H76V134M82 134h2v2H82V134M86 134h2v2H86V134M90 134h2v2H90V134M92 134h2v2H92V134M98 134h2v2H98V134M100 134h2v2H100V134M102 134h2v2H102V134M108 134h2v2H108V134M112 134h2v2H112V134M114 134h2v2H114V134M128 134h2v2H128V134M134 134h2v2H134V134M138 134h2v2H138V134M140 134h2v2H140V134M142 134h2v2H142V134M146 134h2v2H146V134M150 134h2v2H150V134M158 134h2v2H158V134M162 134h2v2H162V134M170 134h2v2H170V134M174 134h2v2H174V134M186 134h2v2H186V134M188 134h2v2H188V134M190 134h2v2H190V134M192 134h2v2H192V134M198 134h2v2H198V134M200 134h2v2H200V134M202 134h2v2H202V134M206 134h2v2H206V134M14 136h2v2H14V136M20 136h2v2H20V136M26 136h2v2H26V136M28 136h2v2H28V136M34 136h2v2H34V136M40 136h2v2H40V136M44 136h2v2H44V136M48 136h2v2H48V136M52 136h2v2H52V136M56 136h2v2H56V136M58 136h2v2H58V136M62 136h2v2H62V136M66 136h2v2H66V136M68 136h2v2H68V136M72 136h2v2H72V136M80 136h2v2H80V136M82 136h2v2H82V136M84 136h2v2H84V136M90 136h2v2H90V136M96 136h2v2H96V136M98 136h2v2H98V136M106 136h2v2H106V136M114 136h2v2H114V136M116 136h2v2H116V136M120 136h2v2H120V136M126 136h2v2H126V136M134 136h2v2H134V136M144 136h2v2H144V136M150 136h2v2H150V136M158 136h2v2H158V136M162 136h2v2H162V136M164 136h2v2H164V136M170 136h2v2H170V136M172 136h2v2H172V136M174 136h2v2H174V136M178 136h2v2H178V136M186 136h2v2H186V136M188 136h2v2H188V136M192 136h2v2H192V136M194 136h2v2H194V136M198 136h2v2H198V136M8 138h2v2H8V138M14 138h2v2H14V138M16 138h2v2H16V138M18 138h2v2H18V138M22 138h2v2H22V138M24 138h2v2H24V138M28 138h2v2H28V138M30 138h2v2H30V138M36 138h2v2H36V138M40 138h2v2H40V138M42 138h2v2H42V138M44 138h2v2H44V138M54 138h2v2H54V138M58 138h2v2H58V138M60 138h2v2H60V138M62 138h2v2H62V138M64 138h2v2H64V138M66 138h2v2H66V138M72 138h2v2H72V138M80 138h2v2H80V138M82 138h2v2H82V138M88 138h2v2H88V138M94 138h2v2H94V138M100 138h2v2H100V138M104 138h2v2H104V138M106 138h2v2H106V138M112 138h2v2H112V138M114 138h2v2H114V138M124 138h2v2H124V138M130 138h2v2H130V138M136 138h2v2H136V138M138 138h2v2H138V138M142 138h2v2H142V138M148 138h2v2H148V138M150 138h2v2H150V138M154 138h2v2H154V138M158 138h2v2H158V138M160 138h2v2H160V138M162 138h2v2H162V138M164 138h2v2H164V138M166 138h2v2H166V138M170 138h2v2H170V138M172 138h2v2H172V138M174 138h2v2H174V138M178 138h2v2H178V138M186 138h2v2H186V138M190 138h2v2H190V138M200 138h2v2H200V138M202 138h2v2H202V138M206 138h2v2H206V138M208 138h2v2H208V138M10 140h2v2H10V140M12 140h2v2H12V140M16 140h2v2H16V140M20 140h2v2H20V140M22 140h2v2H22V140M24 140h2v2H24V140M28 140h2v2H28V140M30 140h2v2H30V140M32 140h2v2H32V140M36 140h2v2H36V140M40 140h2v2H40V140M44 140h2v2H44V140M46 140h2v2H46V140M50 140h2v2H50V140M54 140h2v2H54V140M56 140h2v2H56V140M58 140h2v2H58V140M60 140h2v2H60V140M62 140h2v2H62V140M64 140h2v2H64V140M66 140h2v2H66V140M68 140h2v2H68V140M74 140h2v2H74V140M78 140h2v2H78V140M80 140h2v2H80V140M84 140h2v2H84V140M90 140h2v2H90V140M92 140h2v2H92V140M98 140h2v2H98V140M104 140h2v2H104V140M106 140h2v2H106V140M108 140h2v2H108V140M112 140h2v2H112V140M116 140h2v2H116V140M120 140h2v2H120V140M122 140h2v2H122V140M124 140h2v2H124V140M126 140h2v2H126V140M128 140h2v2H128V140M130 140h2v2H130V140M140 140h2v2H140V140M142 140h2v2H142V140M150 140h2v2H150V140M152 140h2v2H152V140M162 140h2v2H162V140M166 140h2v2H166V140M168 140h2v2H168V140M172 140h2v2H172V140M174 140h2v2H174V140M176 140h2v2H176V140M180 140h2v2H180V140M190 140h2v2H190V140M192 140h2v2H192V140M196 140h2v2H196V140M200 140h2v2H200V140M202 140h2v2H202V140M10 142h2v2H10V142M14 142h2v2H14V142M16 142h2v2H16V142M26 142h2v2H26V142M28 142h2v2H28V142M34 142h2v2H34V142M36 142h2v2H36V142M40 142h2v2H40V142M42 142h2v2H42V142M44 142h2v2H44V142M46 142h2v2H46V142M52 142h2v2H52V142M54 142h2v2H54V142M56 142h2v2H56V142M66 142h2v2H66V142M68 142h2v2H68V142M72 142h2v2H72V142M74 142h2v2H74V142M76 142h2v2H76V142M80 142h2v2H80V142M82 142h2v2H82V142M84 142h2v2H84V142M90 142h2v2H90V142M96 142h2v2H96V142M102 142h2v2H102V142M112 142h2v2H112V142M114 142h2v2H114V142M120 142h2v2H120V142M126 142h2v2H126V142M130 142h2v2H130V142M132 142h2v2H132V142M136 142h2v2H136V142M138 142h2v2H138V142M140 142h2v2H140V142M142 142h2v2H142V142M144 142h2v2H144V142M150 142h2v2H150V142M156 142h2v2H156V142M160 142h2v2H160V142M174 142h2v2H174V142M178 142h2v2H178V142M180 142h2v2H180V142M184 142h2v2H184V142M188 142h2v2H188V142M194 142h2v2H194V142M198 142h2v2H198V142M200 142h2v2H200V142M206 142h2v2H206V142M10 144h2v2H10V144M18 144h2v2H18V144M20 144h2v2H20V144M26 144h2v2H26V144M30 144h2v2H30V144M32 144h2v2H32V144M34 144h2v2H34V144M36 144h2v2H36V144M38 144h2v2H38V144M40 144h2v2H40V144M44 144h2v2H44V144M46 144h2v2H46V144M50 144h2v2H50V144M54 144h2v2H54V144M56 144h2v2H56V144M58 144h2v2H58V144M62 144h2v2H62V144M64 144h2v2H64V144M66 144h2v2H66V144M70 144h2v2H70V144M78 144h2v2H78V144M82 144h2v2H82V144M88 144h2v2H88V144M98 144h2v2H98V144M100 144h2v2H100V144M102 144h2v2H102V144M104 144h2v2H104V144M108 144h2v2H108V144M110 144h2v2H110V144M114 144h2v2H114V144M128 144h2v2H128V144M130 144h2v2H130V144M134 144h2v2H134V144M136 144h2v2H136V144M138 144h2v2H138V144M148 144h2v2H148V144M154 144h2v2H154V144M160 144h2v2H160V144M174 144h2v2H174V144M176 144h2v2H176V144M182 144h2v2H182V144M184 144h2v2H184V144M192 144h2v2H192V144M198 144h2v2H198V144M204 144h2v2H204V144M12 146h2v2H12V146M26 146h2v2H26V146M28 146h2v2H28V146M36 146h2v2H36V146M40 146h2v2H40V146M42 146h2v2H42V146M44 146h2v2H44V146M46 146h2v2H46V146M58 146h2v2H58V146M66 146h2v2H66V146M68 146h2v2H68V146M76 146h2v2H76V146M78 146h2v2H78V146M86 146h2v2H86V146M90 146h2v2H90V146M92 146h2v2H92V146M98 146h2v2H98V146M102 146h2v2H102V146M104 146h2v2H104V146M110 146h2v2H110V146M114 146h2v2H114V146M116 146h2v2H116V146M118 146h2v2H118V146M124 146h2v2H124V146M128 146h2v2H128V146M134 146h2v2H134V146M140 146h2v2H140V146M144 146h2v2H144V146M146 146h2v2H146V146M150 146h2v2H150V146M152 146h2v2H152V146M160 146h2v2H160V146M164 146h2v2H164V146M168 146h2v2H168V146M170 146h2v2H170V146M182 146h2v2H182V146M186 146h2v2H186V146M188 146h2v2H188V146M196 146h2v2H196V146M200 146h2v2H200V146M10 148h2v2H10V148M12 148h2v2H12V148M16 148h2v2H16V148M18 148h2v2H18V148M20 148h2v2H20V148M22 148h2v2H22V148M24 148h2v2H24V148M26 148h2v2H26V148M36 148h2v2H36V148M38 148h2v2H38V148M42 148h2v2H42V148M44 148h2v2H44V148M46 148h2v2H46V148M48 148h2v2H48V148M52 148h2v2H52V148M56 148h2v2H56V148M60 148h2v2H60V148M62 148h2v2H62V148M64 148h2v2H64V148M66 148h2v2H66V148M68 148h2v2H68V148M78 148h2v2H78V148M80 148h2v2H80V148M86 148h2v2H86V148M94 148h2v2H94V148M96 148h2v2H96V148M104 148h2v2H104V148M106 148h2v2H106V148M108 148h2v2H108V148M110 148h2v2H110V148M112 148h2v2H112V148M114 148h2v2H114V148M116 148h2v2H116V148M118 148h2v2H118V148M120 148h2v2H120V148M128 148h2v2H128V148M130 148h2v2H130V148M132 148h2v2H132V148M134 148h2v2H134V148M138 148h2v2H138V148M142 148h2v2H142V148M144 148h2v2H144V148M148 148h2v2H148V148M150 148h2v2H150V148M152 148h2v2H152V148M154 148h2v2H154V148M156 148h2v2H156V148M162 148h2v2H162V148M164 148h2v2H164V148M166 148h2v2H166V148M168 148h2v2H168V148M170 148h2v2H170V148M178 148h2v2H178V148M182 148h2v2H182V148M192 148h2v2H192V148M194 148h2v2H194V148M196 148h2v2H196V148M198 148h2v2H198V148M200 148h2v2H200V148M202 148h2v2H202V148M208 148h2v2H208V148M8 150h2v2H8V150M14 150h2v2H14V150M16 150h2v2H16V150M24 150h2v2H24V150M26 150h2v2H26V150M28 150h2v2H28V150M30 150h2v2H30V150M34 150h2v2H34V150M38 150h2v2H38V150M42 150h2v2H42V150M44 150h2v2H44V150M50 150h2v2H50V150M52 150h2v2H52V150M54 150h2v2H54V150M56 150h2v2H56V150M58 150h2v2H58V150M60 150h2v2H60V150M68 150h2v2H68V150M72 150h2v2H72V150M74 150h2v2H74V150M78 150h2v2H78V150M80 150h2v2H80V150M88 150h2v2H88V150M94 150h2v2H94V150M96 150h2v2H96V150M100 150h2v2H100V150M102 150h2v2H102V150M104 150h2v2H104V150M112 150h2v2H112V150M114 150h2v2H114V150M116 150h2v2H116V150M118 150h2v2H118V150M120 150h2v2H120V150M124 150h2v2H124V150M128 150h2v2H128V150M130 150h2v2H130V150M136 150h2v2H136V150M142 150h2v2H142V150M144 150h2v2H144V150M148 150h2v2H148V150M156 150h2v2H156V150M166 150h2v2H166V150M170 150h2v2H170V150M172 150h2v2H172V150M174 150h2v2H174V150M176 150h2v2H176V150M178 150h2v2H178V150M182 150h2v2H182V150M190 150h2v2H190V150M192 150h2v2H192V150M200 150h2v2H200V150M206 150h2v2H206V150M208 150h2v2H208V150M10 152h2v2H10V152M16 152h2v2H16V152M20 152h2v2H20V152M24 152h2v2H24V152M30 152h2v2H30V152M42 152h2v2H42V152M44 152h2v2H44V152M48 152h2v2H48V152M50 152h2v2H50V152M52 152h2v2H52V152M54 152h2v2H54V152M60 152h2v2H60V152M64 152h2v2H64V152M68 152h2v2H68V152M70 152h2v2H70V152M74 152h2v2H74V152M76 152h2v2H76V152M80 152h2v2H80V152M86 152h2v2H86V152M88 152h2v2H88V152M90 152h2v2H90V152M94 152h2v2H94V152M104 152h2v2H104V152M108 152h2v2H108V152M112 152h2v2H112V152M114 152h2v2H114V152M116 152h2v2H116V152M124 152h2v2H124V152M126 152h2v2H126V152M128 152h2v2H128V152M136 152h2v2H136V152M138 152h2v2H138V152M140 152h2v2H140V152M142 152h2v2H142V152M146 152h2v2H146V152M148 152h2v2H148V152M152 152h2v2H152V152M156 152h2v2H156V152M158 152h2v2H158V152M170 152h2v2H170V152M174 152h2v2H174V152M176 152h2v2H176V152M178 152h2v2H178V152M180 152h2v2H180V152M188 152h2v2H188V152M192 152h2v2H192V152M196 152h2v2H196V152M200 152h2v2H200V152M202 152h2v2H202V152M206 152h2v2H206V152M14 154h2v2H14V154M16 154h2v2H16V154M24 154h2v2H24V154M26 154h2v2H26V154M32 154h2v2H32V154M34 154h2v2H34V154M36 154h2v2H36V154M38 154h2v2H38V154M40 154h2v2H40V154M42 154h2v2H42V154M44 154h2v2H44V154M56 154h2v2H56V154M58 154h2v2H58V154M60 154h2v2H60V154M68 154h2v2H68V154M70 154h2v2H70V154M72 154h2v2H72V154M78 154h2v2H78V154M82 154h2v2H82V154M90 154h2v2H90V154M96 154h2v2H96V154M100 154h2v2H100V154M102 154h2v2H102V154M104 154h2v2H104V154M112 154h2v2H112V154M114 154h2v2H114V154M116 154h2v2H116V154M118 154h2v2H118V154M122 154h2v2H122V154M124 154h2v2H124V154M126 154h2v2H126V154M128 154h2v2H128V154M130 154h2v2H130V154M132 154h2v2H132V154M136 154h2v2H136V154M138 154h2v2H138V154M144 154h2v2H144V154M148 154h2v2H148V154M156 154h2v2H156V154M164 154h2v2H164V154M170 154h2v2H170V154M174 154h2v2H174V154M180 154h2v2H180V154M182 154h2v2H182V154M184 154h2v2H184V154M192 154h2v2H192V154M200 154h2v2H200V154M204 154h2v2H204V154M206 154h2v2H206V154M8 156h2v2H8V156M10 156h2v2H10V156M12 156h2v2H12V156M16 156h2v2H16V156M18 156h2v2H18V156M20 156h2v2H20V156M22 156h2v2H22V156M24 156h2v2H24V156M32 156h2v2H32V156M34 156h2v2H34V156M36 156h2v2H36V156M42 156h2v2H42V156M48 156h2v2H48V156M52 156h2v2H52V156M56 156h2v2H56V156M60 156h2v2H60V156M62 156h2v2H62V156M64 156h2v2H64V156M66 156h2v2H66V156M68 156h2v2H68V156M70 156h2v2H70V156M72 156h2v2H72V156M76 156h2v2H76V156M82 156h2v2H82V156M84 156h2v2H84V156M86 156h2v2H86V156M90 156h2v2H90V156M98 156h2v2H98V156M104 156h2v2H104V156M106 156h2v2H106V156M108 156h2v2H108V156M110 156h2v2H110V156M112 156h2v2H112V156M114 156h2v2H114V156M116 156h2v2H116V156M118 156h2v2H118V156M124 156h2v2H124V156M126 156h2v2H126V156M134 156h2v2H134V156M136 156h2v2H136V156M148 156h2v2H148V156M150 156h2v2H150V156M152 156h2v2H152V156M154 156h2v2H154V156M156 156h2v2H156V156M158 156h2v2H158V156M160 156h2v2H160V156M168 156h2v2H168V156M174 156h2v2H174V156M178 156h2v2H178V156M182 156h2v2H182V156M192 156h2v2H192V156M194 156h2v2H194V156M196 156h2v2H196V156M198 156h2v2H198V156M200 156h2v2H200V156M202 156h2v2H202V156M206 156h2v2H206V156M8 158h2v2H8V158M12 158h2v2H12V158M14 158h2v2H14V158M24 158h2v2H24V158M26 158h2v2H26V158M32 158h2v2H32V158M38 158h2v2H38V158M40 158h2v2H40V158M46 158h2v2H46V158M48 158h2v2H48V158M50 158h2v2H50V158M54 158h2v2H54V158M60 158h2v2H60V158M62 158h2v2H62V158M64 158h2v2H64V158M68 158h2v2H68V158M72 158h2v2H72V158M74 158h2v2H74V158M78 158h2v2H78V158M80 158h2v2H80V158M82 158h2v2H82V158M86 158h2v2H86V158M88 158h2v2H88V158M100 158h2v2H100V158M104 158h2v2H104V158M110 158h2v2H110V158M114 158h2v2H114V158M120 158h2v2H120V158M128 158h2v2H128V158M136 158h2v2H136V158M140 158h2v2H140V158M142 158h2v2H142V158M144 158h2v2H144V158M152 158h2v2H152V158M164 158h2v2H164V158M168 158h2v2H168V158M172 158h2v2H172V158M176 158h2v2H176V158M178 158h2v2H178V158M182 158h2v2H182V158M184 158h2v2H184V158M188 158h2v2H188V158M196 158h2v2H196V158M204 158h2v2H204V158M8 160h2v2H8V160M16 160h2v2H16V160M18 160h2v2H18V160M20 160h2v2H20V160M26 160h2v2H26V160M34 160h2v2H34V160M36 160h2v2H36V160M38 160h2v2H38V160M42 160h2v2H42V160M44 160h2v2H44V160M46 160h2v2H46V160M48 160h2v2H48V160M52 160h2v2H52V160M56 160h2v2H56V160M62 160h2v2H62V160M66 160h2v2H66V160M68 160h2v2H68V160M72 160h2v2H72V160M74 160h2v2H74V160M76 160h2v2H76V160M80 160h2v2H80V160M86 160h2v2H86V160M94 160h2v2H94V160M98 160h2v2H98V160M104 160h2v2H104V160M108 160h2v2H108V160M116 160h2v2H116V160M120 160h2v2H120V160M122 160h2v2H122V160M126 160h2v2H126V160M130 160h2v2H130V160M134 160h2v2H134V160M142 160h2v2H142V160M144 160h2v2H144V160M150 160h2v2H150V160M156 160h2v2H156V160M158 160h2v2H158V160M160 160h2v2H160V160M162 160h2v2H162V160M166 160h2v2H166V160M168 160h2v2H168V160M172 160h2v2H172V160M176 160h2v2H176V160M178 160h2v2H178V160M182 160h2v2H182V160M192 160h2v2H192V160M194 160h2v2H194V160M196 160h2v2H196V160M198 160h2v2H198V160M204 160h2v2H204V160M206 160h2v2H206V160M208 160h2v2H208V160M10 162h2v2H10V162M12 162h2v2H12V162M14 162h2v2H14V162M18 162h2v2H18V162M22 162h2v2H22V162M24 162h2v2H24V162M32 162h2v2H32V162M36 162h2v2H36V162M40 162h2v2H40V162M42 162h2v2H42V162M46 162h2v2H46V162M48 162h2v2H48V162M52 162h2v2H52V162M54 162h2v2H54V162M58 162h2v2H58V162M62 162h2v2H62V162M64 162h2v2H64V162M66 162h2v2H66V162M72 162h2v2H72V162M74 162h2v2H74V162M80 162h2v2H80V162M82 162h2v2H82V162M84 162h2v2H84V162M90 162h2v2H90V162M92 162h2v2H92V162M94 162h2v2H94V162M96 162h2v2H96V162M98 162h2v2H98V162M108 162h2v2H108V162M110 162h2v2H110V162M112 162h2v2H112V162M114 162h2v2H114V162M118 162h2v2H118V162M128 162h2v2H128V162M130 162h2v2H130V162M136 162h2v2H136V162M140 162h2v2H140V162M144 162h2v2H144V162M146 162h2v2H146V162M148 162h2v2H148V162M150 162h2v2H150V162M154 162h2v2H154V162M160 162h2v2H160V162M162 162h2v2H162V162M170 162h2v2H170V162M176 162h2v2H176V162M178 162h2v2H178V162M184 162h2v2H184V162M186 162h2v2H186V162M190 162h2v2H190V162M192 162h2v2H192V162M194 162h2v2H194V162M196 162h2v2H196V162M200 162h2v2H200V162M204 162h2v2H204V162M206 162h2v2H206V162M12 164h2v2H12V164M14 164h2v2H14V164M16 164h2v2H16V164M20 164h2v2H20V164M22 164h2v2H22V164M26 164h2v2H26V164M28 164h2v2H28V164M36 164h2v2H36V164M40 164h2v2H40V164M42 164h2v2H42V164M44 164h2v2H44V164M48 164h2v2H48V164M50 164h2v2H50V164M56 164h2v2H56V164M60 164h2v2H60V164M62 164h2v2H62V164M64 164h2v2H64V164M66 164h2v2H66V164M68 164h2v2H68V164M70 164h2v2H70V164M80 164h2v2H80V164M82 164h2v2H82V164M90 164h2v2H90V164M92 164h2v2H92V164M94 164h2v2H94V164M104 164h2v2H104V164M106 164h2v2H106V164M110 164h2v2H110V164M114 164h2v2H114V164M116 164h2v2H116V164M118 164h2v2H118V164M124 164h2v2H124V164M126 164h2v2H126V164M130 164h2v2H130V164M138 164h2v2H138V164M142 164h2v2H142V164M144 164h2v2H144V164M146 164h2v2H146V164M148 164h2v2H148V164M150 164h2v2H150V164M152 164h2v2H152V164M160 164h2v2H160V164M162 164h2v2H162V164M172 164h2v2H172V164M174 164h2v2H174V164M176 164h2v2H176V164M178 164h2v2H178V164M182 164h2v2H182V164M188 164h2v2H188V164M192 164h2v2H192V164M200 164h2v2H200V164M206 164h2v2H206V164M208 164h2v2H208V164M14 166h2v2H14V166M16 166h2v2H16V166M18 166h2v2H18V166M22 166h2v2H22V166M24 166h2v2H24V166M26 166h2v2H26V166M28 166h2v2H28V166M30 166h2v2H30V166M32 166h2v2H32V166M36 166h2v2H36V166M42 166h2v2H42V166M44 166h2v2H44V166M48 166h2v2H48V166M54 166h2v2H54V166M56 166h2v2H56V166M58 166h2v2H58V166M60 166h2v2H60V166M66 166h2v2H66V166M70 166h2v2H70V166M76 166h2v2H76V166M84 166h2v2H84V166M92 166h2v2H92V166M94 166h2v2H94V166M100 166h2v2H100V166M102 166h2v2H102V166M104 166h2v2H104V166M106 166h2v2H106V166M114 166h2v2H114V166M116 166h2v2H116V166M118 166h2v2H118V166M120 166h2v2H120V166M126 166h2v2H126V166M128 166h2v2H128V166M140 166h2v2H140V166M146 166h2v2H146V166M148 166h2v2H148V166M150 166h2v2H150V166M160 166h2v2H160V166M166 166h2v2H166V166M178 166h2v2H178V166M180 166h2v2H180V166M186 166h2v2H186V166M196 166h2v2H196V166M198 166h2v2H198V166M206 166h2v2H206V166M8 168h2v2H8V168M10 168h2v2H10V168M16 168h2v2H16V168M20 168h2v2H20V168M22 168h2v2H22V168M24 168h2v2H24V168M28 168h2v2H28V168M32 168h2v2H32V168M34 168h2v2H34V168M42 168h2v2H42V168M44 168h2v2H44V168M46 168h2v2H46V168M48 168h2v2H48V168M52 168h2v2H52V168M54 168h2v2H54V168M66 168h2v2H66V168M68 168h2v2H68V168M70 168h2v2H70V168M72 168h2v2H72V168M76 168h2v2H76V168M78 168h2v2H78V168M84 168h2v2H84V168M88 168h2v2H88V168M90 168h2v2H90V168M92 168h2v2H92V168M98 168h2v2H98V168M100 168h2v2H100V168M104 168h2v2H104V168M106 168h2v2H106V168M110 168h2v2H110V168M112 168h2v2H112V168M120 168h2v2H120V168M124 168h2v2H124V168M126 168h2v2H126V168M134 168h2v2H134V168M152 168h2v2H152V168M156 168h2v2H156V168M158 168h2v2H158V168M160 168h2v2H160V168M168 168h2v2H168V168M170 168h2v2H170V168M172 168h2v2H172V168M178 168h2v2H178V168M180 168h2v2H180V168M182 168h2v2H182V168M184 168h2v2H184V168M190 168h2v2H190V168M196 168h2v2H196V168M198 168h2v2H198V168M208 168h2v2H208V168M16 170h2v2H16V170M18 170h2v2H18V170M22 170h2v2H22V170M24 170h2v2H24V170M26 170h2v2H26V170M28 170h2v2H28V170M30 170h2v2H30V170M32 170h2v2H32V170M36 170h2v2H36V170M38 170h2v2H38V170M42 170h2v2H42V170M44 170h2v2H44V170M48 170h2v2H48V170M50 170h2v2H50V170M52 170h2v2H52V170M54 170h2v2H54V170M58 170h2v2H58V170M60 170h2v2H60V170M62 170h2v2H62V170M64 170h2v2H64V170M68 170h2v2H68V170M70 170h2v2H70V170M72 170h2v2H72V170M76 170h2v2H76V170M80 170h2v2H80V170M84 170h2v2H84V170M86 170h2v2H86V170M88 170h2v2H88V170M92 170h2v2H92V170M98 170h2v2H98V170M100 170h2v2H100V170M122 170h2v2H122V170M126 170h2v2H126V170M128 170h2v2H128V170M130 170h2v2H130V170M132 170h2v2H132V170M134 170h2v2H134V170M136 170h2v2H136V170M138 170h2v2H138V170M140 170h2v2H140V170M146 170h2v2H146V170M148 170h2v2H148V170M152 170h2v2H152V170M154 170h2v2H154V170M156 170h2v2H156V170M158 170h2v2H158V170M162 170h2v2H162V170M168 170h2v2H168V170M174 170h2v2H174V170M178 170h2v2H178V170M180 170h2v2H180V170M186 170h2v2H186V170M188 170h2v2H188V170M190 170h2v2H190V170M192 170h2v2H192V170M194 170h2v2H194V170M196 170h2v2H196V170M198 170h2v2H198V170M200 170h2v2H200V170M202 170h2v2H202V170M206 170h2v2H206V170M8 172h2v2H8V172M10 172h2v2H10V172M12 172h2v2H12V172M14 172h2v2H14V172M18 172h2v2H18V172M20 172h2v2H20V172M22 172h2v2H22V172M30 172h2v2H30V172M32 172h2v2H32V172M34 172h2v2H34V172M40 172h2v2H40V172M44 172h2v2H44V172M46 172h2v2H46V172M50 172h2v2H50V172M58 172h2v2H58V172M60 172h2v2H60V172M70 172h2v2H70V172M80 172h2v2H80V172M82 172h2v2H82V172M86 172h2v2H86V172M88 172h2v2H88V172M94 172h2v2H94V172M96 172h2v2H96V172M98 172h2v2H98V172M102 172h2v2H102V172M110 172h2v2H110V172M114 172h2v2H114V172M118 172h2v2H118V172M122 172h2v2H122V172M126 172h2v2H126V172M130 172h2v2H130V172M132 172h2v2H132V172M134 172h2v2H134V172M138 172h2v2H138V172M144 172h2v2H144V172M152 172h2v2H152V172M156 172h2v2H156V172M160 172h2v2H160V172M168 172h2v2H168V172M172 172h2v2H172V172M180 172h2v2H180V172M186 172h2v2H186V172M188 172h2v2H188V172M200 172h2v2H200V172M202 172h2v2H202V172M204 172h2v2H204V172M8 174h2v2H8V174M10 174h2v2H10V174M14 174h2v2H14V174M16 174h2v2H16V174M24 174h2v2H24V174M28 174h2v2H28V174M34 174h2v2H34V174M36 174h2v2H36V174M42 174h2v2H42V174M46 174h2v2H46V174M48 174h2v2H48V174M50 174h2v2H50V174M54 174h2v2H54V174M56 174h2v2H56V174M58 174h2v2H58V174M62 174h2v2H62V174M68 174h2v2H68V174M70 174h2v2H70V174M74 174h2v2H74V174M76 174h2v2H76V174M78 174h2v2H78V174M84 174h2v2H84V174M92 174h2v2H92V174M94 174h2v2H94V174M100 174h2v2H100V174M102 174h2v2H102V174M104 174h2v2H104V174M118 174h2v2H118V174M120 174h2v2H120V174M122 174h2v2H122V174M126 174h2v2H126V174M128 174h2v2H128V174M132 174h2v2H132V174M134 174h2v2H134V174M136 174h2v2H136V174M138 174h2v2H138V174M142 174h2v2H142V174M146 174h2v2H146V174M150 174h2v2H150V174M156 174h2v2H156V174M158 174h2v2H158V174M160 174h2v2H160V174M162 174h2v2H162V174M168 174h2v2H168V174M170 174h2v2H170V174M184 174h2v2H184V174M186 174h2v2H186V174M188 174h2v2H188V174M196 174h2v2H196V174M202 174h2v2H202V174M206 174h2v2H206V174M208 174h2v2H208V174M10 176h2v2H10V176M14 176h2v2H14V176M16 176h2v2H16V176M20 176h2v2H20V176M28 176h2v2H28V176M32 176h2v2H32V176M34 176h2v2H34V176M36 176h2v2H36V176M40 176h2v2H40V176M42 176h2v2H42V176M48 176h2v2H48V176M50 176h2v2H50V176M52 176h2v2H52V176M54 176h2v2H54V176M56 176h2v2H56V176M58 176h2v2H58V176M60 176h2v2H60V176M62 176h2v2H62V176M64 176h2v2H64V176M68 176h2v2H68V176M70 176h2v2H70V176M72 176h2v2H72V176M78 176h2v2H78V176M80 176h2v2H80V176M90 176h2v2H90V176M92 176h2v2H92V176M94 176h2v2H94V176M96 176h2v2H96V176M104 176h2v2H104V176M106 176h2v2H106V176M108 176h2v2H108V176M116 176h2v2H116V176M118 176h2v2H118V176M126 176h2v2H126V176M130 176h2v2H130V176M132 176h2v2H132V176M134 176h2v2H134V176M142 176h2v2H142V176M146 176h2v2H146V176M150 176h2v2H150V176M154 176h2v2H154V176M164 176h2v2H164V176M168 176h2v2H168V176M170 176h2v2H170V176M172 176h2v2H172V176M176 176h2v2H176V176M186 176h2v2H186V176M194 176h2v2H194V176M198 176h2v2H198V176M204 176h2v2H204V176M8 178h2v2H8V178M10 178h2v2H10V178M12 178h2v2H12V178M14 178h2v2H14V178M18 178h2v2H18V178M22 178h2v2H22V178M28 178h2v2H28V178M40 178h2v2H40V178M48 178h2v2H48V178M58 178h2v2H58V178M64 178h2v2H64V178M66 178h2v2H66V178M70 178h2v2H70V178M78 178h2v2H78V178M84 178h2v2H84V178M86 178h2v2H86V178M90 178h2v2H90V178M92 178h2v2H92V178M98 178h2v2H98V178M104 178h2v2H104V178M108 178h2v2H108V178M112 178h2v2H112V178M114 178h2v2H114V178M116 178h2v2H116V178M120 178h2v2H120V178M124 178h2v2H124V178M126 178h2v2H126V178M128 178h2v2H128V178M134 178h2v2H134V178M136 178h2v2H136V178M140 178h2v2H140V178M142 178h2v2H142V178M144 178h2v2H144V178M146 178h2v2H146V178M148 178h2v2H148V178M150 178h2v2H150V178M158 178h2v2H158V178M162 178h2v2H162V178M166 178h2v2H166V178M168 178h2v2H168V178M176 178h2v2H176V178M178 178h2v2H178V178M180 178h2v2H180V178M196 178h2v2H196V178M198 178h2v2H198V178M200 178h2v2H200V178M202 178h2v2H202V178M204 178h2v2H204V178M10 180h2v2H10V180M16 180h2v2H16V180M20 180h2v2H20V180M24 180h2v2H24V180M26 180h2v2H26V180M32 180h2v2H32V180M40 180h2v2H40V180M42 180h2v2H42V180M44 180h2v2H44V180M48 180h2v2H48V180M66 180h2v2H66V180M68 180h2v2H68V180M70 180h2v2H70V180M78 180h2v2H78V180M80 180h2v2H80V180M82 180h2v2H82V180M88 180h2v2H88V180M90 180h2v2H90V180M98 180h2v2H98V180M100 180h2v2H100V180M106 180h2v2H106V180M108 180h2v2H108V180M110 180h2v2H110V180M112 180h2v2H112V180M114 180h2v2H114V180M118 180h2v2H118V180M120 180h2v2H120V180M122 180h2v2H122V180M132 180h2v2H132V180M134 180h2v2H134V180M136 180h2v2H136V180M142 180h2v2H142V180M148 180h2v2H148V180M156 180h2v2H156V180M160 180h2v2H160V180M164 180h2v2H164V180M166 180h2v2H166V180M168 180h2v2H168V180M172 180h2v2H172V180M174 180h2v2H174V180M180 180h2v2H180V180M184 180h2v2H184V180M186 180h2v2H186V180M188 180h2v2H188V180M192 180h2v2H192V180M194 180h2v2H194V180M196 180h2v2H196V180M198 180h2v2H198V180M202 180h2v2H202V180M208 180h2v2H208V180M8 182h2v2H8V182M10 182h2v2H10V182M12 182h2v2H12V182M16 182h2v2H16V182M18 182h2v2H18V182M28 182h2v2H28V182M32 182h2v2H32V182M36 182h2v2H36V182M38 182h2v2H38V182M46 182h2v2H46V182M48 182h2v2H48V182M50 182h2v2H50V182M56 182h2v2H56V182M58 182h2v2H58V182M62 182h2v2H62V182M66 182h2v2H66V182M70 182h2v2H70V182M72 182h2v2H72V182M78 182h2v2H78V182M82 182h2v2H82V182M84 182h2v2H84V182M88 182h2v2H88V182M90 182h2v2H90V182M92 182h2v2H92V182M94 182h2v2H94V182M98 182h2v2H98V182M100 182h2v2H100V182M110 182h2v2H110V182M118 182h2v2H118V182M122 182h2v2H122V182M126 182h2v2H126V182M134 182h2v2H134V182M138 182h2v2H138V182M140 182h2v2H140V182M146 182h2v2H146V182M148 182h2v2H148V182M150 182h2v2H150V182M156 182h2v2H156V182M164 182h2v2H164V182M176 182h2v2H176V182M178 182h2v2H178V182M186 182h2v2H186V182M188 182h2v2H188V182M190 182h2v2H190V182M194 182h2v2H194V182M196 182h2v2H196V182M200 182h2v2H200V182M12 184h2v2H12V184M14 184h2v2H14V184M16 184h2v2H16V184M18 184h2v2H18V184M20 184h2v2H20V184M24 184h2v2H24V184M26 184h2v2H26V184M28 184h2v2H28V184M32 184h2v2H32V184M34 184h2v2H34V184M40 184h2v2H40V184M42 184h2v2H42V184M44 184h2v2H44V184M50 184h2v2H50V184M52 184h2v2H52V184M62 184h2v2H62V184M64 184h2v2H64V184M66 184h2v2H66V184M68 184h2v2H68V184M70 184h2v2H70V184M72 184h2v2H72V184M76 184h2v2H76V184M80 184h2v2H80V184M84 184h2v2H84V184M86 184h2v2H86V184M88 184h2v2H88V184M96 184h2v2H96V184M102 184h2v2H102V184M104 184h2v2H104V184M106 184h2v2H106V184M108 184h2v2H108V184M110 184h2v2H110V184M112 184h2v2H112V184M118 184h2v2H118V184M120 184h2v2H120V184M126 184h2v2H126V184M128 184h2v2H128V184M132 184h2v2H132V184M138 184h2v2H138V184M142 184h2v2H142V184M144 184h2v2H144V184M148 184h2v2H148V184M150 184h2v2H150V184M152 184h2v2H152V184M154 184h2v2H154V184M156 184h2v2H156V184M160 184h2v2H160V184M164 184h2v2H164V184M168 184h2v2H168V184M172 184h2v2H172V184M174 184h2v2H174V184M176 184h2v2H176V184M182 184h2v2H182V184M186 184h2v2H186V184M190 184h2v2H190V184M194 184h2v2H194V184M198 184h2v2H198V184M200 184h2v2H200V184M204 184h2v2H204V184M10 186h2v2H10V186M12 186h2v2H12V186M26 186h2v2H26V186M32 186h2v2H32V186M34 186h2v2H34V186M46 186h2v2H46V186M48 186h2v2H48V186M54 186h2v2H54V186M56 186h2v2H56V186M70 186h2v2H70V186M76 186h2v2H76V186M80 186h2v2H80V186M82 186h2v2H82V186M96 186h2v2H96V186M98 186h2v2H98V186M100 186h2v2H100V186M102 186h2v2H102V186M104 186h2v2H104V186M110 186h2v2H110V186M122 186h2v2H122V186M124 186h2v2H124V186M126 186h2v2H126V186M130 186h2v2H130V186M132 186h2v2H132V186M134 186h2v2H134V186M138 186h2v2H138V186M142 186h2v2H142V186M150 186h2v2H150V186M152 186h2v2H152V186M154 186h2v2H154V186M158 186h2v2H158V186M160 186h2v2H160V186M170 186h2v2H170V186M172 186h2v2H172V186M180 186h2v2H180V186M184 186h2v2H184V186M186 186h2v2H186V186M190 186h2v2H190V186M192 186h2v2H192V186M196 186h2v2H196V186M198 186h2v2H198V186M208 186h2v2H208V186M8 188h2v2H8V188M14 188h2v2H14V188M16 188h2v2H16V188M20 188h2v2H20V188M22 188h2v2H22V188M26 188h2v2H26V188M28 188h2v2H28V188M30 188h2v2H30V188M32 188h2v2H32V188M38 188h2v2H38V188M40 188h2v2H40V188M42 188h2v2H42V188M44 188h2v2H44V188M46 188h2v2H46V188M48 188h2v2H48V188M50 188h2v2H50V188M52 188h2v2H52V188M54 188h2v2H54V188M66 188h2v2H66V188M68 188h2v2H68V188M72 188h2v2H72V188M74 188h2v2H74V188M76 188h2v2H76V188M84 188h2v2H84V188M86 188h2v2H86V188M92 188h2v2H92V188M94 188h2v2H94V188M98 188h2v2H98V188M100 188h2v2H100V188M122 188h2v2H122V188M146 188h2v2H146V188M158 188h2v2H158V188M160 188h2v2H160V188M166 188h2v2H166V188M168 188h2v2H168V188M170 188h2v2H170V188M172 188h2v2H172V188M174 188h2v2H174V188M182 188h2v2H182V188M184 188h2v2H184V188M190 188h2v2H190V188M194 188h2v2H194V188M196 188h2v2H196V188M198 188h2v2H198V188M200 188h2v2H200V188M8 190h2v2H8V190M12 190h2v2H12V190M14 190h2v2H14V190M18 190h2v2H18V190M22 190h2v2H22V190M26 190h2v2H26V190M30 190h2v2H30V190M32 190h2v2H32V190M38 190h2v2H38V190M42 190h2v2H42V190M46 190h2v2H46V190M54 190h2v2H54V190M56 190h2v2H56V190M60 190h2v2H60V190M62 190h2v2H62V190M64 190h2v2H64V190M70 190h2v2H70V190M78 190h2v2H78V190M86 190h2v2H86V190M88 190h2v2H88V190M96 190h2v2H96V190M98 190h2v2H98V190M100 190h2v2H100V190M104 190h2v2H104V190M108 190h2v2H108V190M110 190h2v2H110V190M112 190h2v2H112V190M114 190h2v2H114V190M118 190h2v2H118V190M120 190h2v2H120V190M122 190h2v2H122V190M126 190h2v2H126V190M130 190h2v2H130V190M132 190h2v2H132V190M142 190h2v2H142V190M144 190h2v2H144V190M154 190h2v2H154V190M156 190h2v2H156V190M158 190h2v2H158V190M166 190h2v2H166V190M170 190h2v2H170V190M172 190h2v2H172V190M178 190h2v2H178V190M180 190h2v2H180V190M204 190h2v2H204V190M206 190h2v2H206V190M16 192h2v2H16V192M20 192h2v2H20V192M22 192h2v2H22V192M30 192h2v2H30V192M32 192h2v2H32V192M40 192h2v2H40V192M42 192h2v2H42V192M48 192h2v2H48V192M56 192h2v2H56V192M60 192h2v2H60V192M62 192h2v2H62V192M64 192h2v2H64V192M66 192h2v2H66V192M68 192h2v2H68V192M72 192h2v2H72V192M74 192h2v2H74V192M76 192h2v2H76V192M78 192h2v2H78V192M82 192h2v2H82V192M94 192h2v2H94V192M100 192h2v2H100V192M102 192h2v2H102V192M104 192h2v2H104V192M106 192h2v2H106V192M108 192h2v2H108V192M110 192h2v2H110V192M112 192h2v2H112V192M114 192h2v2H114V192M116 192h2v2H116V192M118 192h2v2H118V192M120 192h2v2H120V192M122 192h2v2H122V192M124 192h2v2H124V192M130 192h2v2H130V192M146 192h2v2H146V192M148 192h2v2H148V192M150 192h2v2H150V192M152 192h2v2H152V192M154 192h2v2H154V192M156 192h2v2H156V192M158 192h2v2H158V192M162 192h2v2H162V192M166 192h2v2H166V192M168 192h2v2H168V192M172 192h2v2H172V192M174 192h2v2H174V192M176 192h2v2H176V192M178 192h2v2H178V192M182 192h2v2H182V192M188 192h2v2H188V192M192 192h2v2H192V192M194 192h2v2H194V192M196 192h2v2H196V192M198 192h2v2H198V192M200 192h2v2H200V192M202 192h2v2H202V192M208 192h2v2H208V192M24 194h2v2H24V194M26 194h2v2H26V194M28 194h2v2H28V194M30 194h2v2H30V194M36 194h2v2H36V194M38 194h2v2H38V194M42 194h2v2H42V194M46 194h2v2H46V194M48 194h2v2H48V194M50 194h2v2H50V194M52 194h2v2H52V194M54 194h2v2H54V194M56 194h2v2H56V194M58 194h2v2H58V194M60 194h2v2H60V194M68 194h2v2H68V194M70 194h2v2H70V194M72 194h2v2H72V194M76 194h2v2H76V194M92 194h2v2H92V194M94 194h2v2H94V194M96 194h2v2H96V194M104 194h2v2H104V194M112 194h2v2H112V194M118 194h2v2H118V194M122 194h2v2H122V194M126 194h2v2H126V194M128 194h2v2H128V194M134 194h2v2H134V194M138 194h2v2H138V194M140 194h2v2H140V194M148 194h2v2H148V194M156 194h2v2H156V194M162 194h2v2H162V194M164 194h2v2H164V194M166 194h2v2H166V194M170 194h2v2H170V194M172 194h2v2H172V194M174 194h2v2H174V194M178 194h2v2H178V194M186 194h2v2H186V194M188 194h2v2H188V194M190 194h2v2H190V194M192 194h2v2H192V194M200 194h2v2H200V194M202 194h2v2H202V194M206 194h2v2H206V194M208 194h2v2H208V194M8 196h2v2H8V196M10 196h2v2H10V196M12 196h2v2H12V196M14 196h2v2H14V196M16 196h2v2H16V196M18 196h2v2H18V196M20 196h2v2H20V196M24 196h2v2H24V196M36 196h2v2H36V196M38 196h2v2H38V196M40 196h2v2H40V196M42 196h2v2H42V196M48 196h2v2H48V196M50 196h2v2H50V196M58 196h2v2H58V196M60 196h2v2H60V196M64 196h2v2H64V196M68 196h2v2H68V196M74 196h2v2H74V196M88 196h2v2H88V196M94 196h2v2H94V196M96 196h2v2H96V196M104 196h2v2H104V196M108 196h2v2H108V196M112 196h2v2H112V196M116 196h2v2H116V196M128 196h2v2H128V196M132 196h2v2H132V196M134 196h2v2H134V196M136 196h2v2H136V196M138 196h2v2H138V196M148 196h2v2H148V196M152 196h2v2H152V196M156 196h2v2H156V196M158 196h2v2H158V196M160 196h2v2H160V196M162 196h2v2H162V196M174 196h2v2H174V196M184 196h2v2H184V196M190 196h2v2H190V196M192 196h2v2H192V196M196 196h2v2H196V196M200 196h2v2H200V196M8 198h2v2H8V198M20 198h2v2H20V198M24 198h2v2H24V198M28 198h2v2H28V198M32 198h2v2H32V198M34 198h2v2H34V198M36 198h2v2H36V198M42 198h2v2H42V198M44 198h2v2H44V198M46 198h2v2H46V198M48 198h2v2H48V198M50 198h2v2H50V198M56 198h2v2H56V198M58 198h2v2H58V198M60 198h2v2H60V198M68 198h2v2H68V198M70 198h2v2H70V198M72 198h2v2H72V198M76 198h2v2H76V198M84 198h2v2H84V198M88 198h2v2H88V198M90 198h2v2H90V198M94 198h2v2H94V198M98 198h2v2H98V198M100 198h2v2H100V198M102 198h2v2H102V198M104 198h2v2H104V198M112 198h2v2H112V198M124 198h2v2H124V198M126 198h2v2H126V198M128 198h2v2H128V198M134 198h2v2H134V198M136 198h2v2H136V198M142 198h2v2H142V198M148 198h2v2H148V198M156 198h2v2H156V198M158 198h2v2H158V198M164 198h2v2H164V198M166 198h2v2H166V198M170 198h2v2H170V198M172 198h2v2H172V198M174 198h2v2H174V198M176 198h2v2H176V198M184 198h2v2H184V198M186 198h2v2H186V198M190 198h2v2H190V198M192 198h2v2H192V198M200 198h2v2H200V198M204 198h2v2H204V198M206 198h2v2H206V198M8 200h2v2H8V200M12 200h2v2H12V200M14 200h2v2H14V200M16 200h2v2H16V200M20 200h2v2H20V200M26 200h2v2H26V200M30 200h2v2H30V200M32 200h2v2H32V200M34 200h2v2H34V200M38 200h2v2H38V200M42 200h2v2H42V200M48 200h2v2H48V200M50 200h2v2H50V200M52 200h2v2H52V200M54 200h2v2H54V200M56 200h2v2H56V200M58 200h2v2H58V200M60 200h2v2H60V200M62 200h2v2H62V200M64 200h2v2H64V200M66 200h2v2H66V200M68 200h2v2H68V200M70 200h2v2H70V200M72 200h2v2H72V200M80 200h2v2H80V200M82 200h2v2H82V200M86 200h2v2H86V200M90 200h2v2H90V200M96 200h2v2H96V200M98 200h2v2H98V200M104 200h2v2H104V200M106 200h2v2H106V200M108 200h2v2H108V200M110 200h2v2H110V200M112 200h2v2H112V200M116 200h2v2H116V200M118 200h2v2H118V200M120 200h2v2H120V200M136 200h2v2H136V200M140 200h2v2H140V200M142 200h2v2H142V200M144 200h2v2H144V200M146 200h2v2H146V200M148 200h2v2H148V200M150 200h2v2H150V200M152 200h2v2H152V200M154 200h2v2H154V200M156 200h2v2H156V200M158 200h2v2H158V200M160 200h2v2H160V200M162 200h2v2H162V200M164 200h2v2H164V200M166 200h2v2H166V200M168 200h2v2H168V200M170 200h2v2H170V200M182 200h2v2H182V200M188 200h2v2H188V200M190 200h2v2H190V200M192 200h2v2H192V200M194 200h2v2H194V200M196 200h2v2H196V200M198 200h2v2H198V200M200 200h2v2H200V200M202 200h2v2H202V200M204 200h2v2H204V200M8 202h2v2H8V202M12 202h2v2H12V202M14 202h2v2H14V202M16 202h2v2H16V202M20 202h2v2H20V202M24 202h2v2H24V202M26 202h2v2H26V202M30 202h2v2H30V202M36 202h2v2H36V202M38 202h2v2H38V202M40 202h2v2H40V202M54 202h2v2H54V202M58 202h2v2H58V202M62 202h2v2H62V202M64 202h2v2H64V202M76 202h2v2H76V202M86 202h2v2H86V202M90 202h2v2H90V202M92 202h2v2H92V202M96 202h2v2H96V202M100 202h2v2H100V202M102 202h2v2H102V202M106 202h2v2H106V202M108 202h2v2H108V202M110 202h2v2H110V202M118 202h2v2H118V202M120 202h2v2H120V202M132 202h2v2H132V202M134 202h2v2H134V202M136 202h2v2H136V202M138 202h2v2H138V202M142 202h2v2H142V202M144 202h2v2H144V202M150 202h2v2H150V202M152 202h2v2H152V202M154 202h2v2H154V202M156 202h2v2H156V202M158 202h2v2H158V202M162 202h2v2H162V202M166 202h2v2H166V202M174 202h2v2H174V202M178 202h2v2H178V202M180 202h2v2H180V202M182 202h2v2H182V202M184 202h2v2H184V202M186 202h2v2H186V202M192 202h2v2H192V202M198 202h2v2H198V202M202 202h2v2H202V202M204 202h2v2H204V202M8 204h2v2H8V204M12 204h2v2H12V204M14 204h2v2H14V204M16 204h2v2H16V204M20 204h2v2H20V204M24 204h2v2H24V204M28 204h2v2H28V204M30 204h2v2H30V204M32 204h2v2H32V204M36 204h2v2H36V204M40 204h2v2H40V204M42 204h2v2H42V204M52 204h2v2H52V204M54 204h2v2H54V204M56 204h2v2H56V204M60 204h2v2H60V204M62 204h2v2H62V204M70 204h2v2H70V204M72 204h2v2H72V204M76 204h2v2H76V204M82 204h2v2H82V204M86 204h2v2H86V204M90 204h2v2H90V204M92 204h2v2H92V204M96 204h2v2H96V204M98 204h2v2H98V204M106 204h2v2H106V204M114 204h2v2H114V204M120 204h2v2H120V204M124 204h2v2H124V204M128 204h2v2H128V204M130 204h2v2H130V204M136 204h2v2H136V204M142 204h2v2H142V204M144 204h2v2H144V204M146 204h2v2H146V204M150 204h2v2H150V204M152 204h2v2H152V204M154 204h2v2H154V204M156 204h2v2H156V204M160 204h2v2H160V204M166 204h2v2H166V204M172 204h2v2H172V204M178 204h2v2H178V204M182 204h2v2H182V204M184 204h2v2H184V204M186 204h2v2H186V204M190 204h2v2H190V204M196 204h2v2H196V204M198 204h2v2H198V204M204 204h2v2H204V204M208 204h2v2H208V204M8 206h2v2H8V206M20 206h2v2H20V206M28 206h2v2H28V206M38 206h2v2H38V206M42 206h2v2H42V206M46 206h2v2H46V206M48 206h2v2H48V206M52 206h2v2H52V206M54 206h2v2H54V206M56 206h2v2H56V206M62 206h2v2H62V206M64 206h2v2H64V206M66 206h2v2H66V206M68 206h2v2H68V206M72 206h2v2H72V206M74 206h2v2H74V206M82 206h2v2H82V206M84 206h2v2H84V206M88 206h2v2H88V206M92 206h2v2H92V206M94 206h2v2H94V206M98 206h2v2H98V206M104 206h2v2H104V206M116 206h2v2H116V206M118 206h2v2H118V206M120 206h2v2H120V206M122 206h2v2H122V206M128 206h2v2H128V206M136 206h2v2H136V206M140 206h2v2H140V206M150 206h2v2H150V206M154 206h2v2H154V206M156 206h2v2H156V206M158 206h2v2H158V206M164 206h2v2H164V206M176 206h2v2H176V206M184 206h2v2H184V206M194 206h2v2H194V206M202 206h2v2H202V206M206 206h2v2H206V206M8 208h2v2H8V208M10 208h2v2H10V208M12 208h2v2H12V208M14 208h2v2H14V208M16 208h2v2H16V208M18 208h2v2H18V208M20 208h2v2H20V208M24 208h2v2H24V208M26 208h2v2H26V208M34 208h2v2H34V208M36 208h2v2H36V208M42 208h2v2H42V208M44 208h2v2H44V208M50 208h2v2H50V208M56 208h2v2H56V208M64 208h2v2H64V208M66 208h2v2H66V208M68 208h2v2H68V208M72 208h2v2H72V208M76 208h2v2H76V208M84 208h2v2H84V208M88 208h2v2H88V208M94 208h2v2H94V208M98 208h2v2H98V208M100 208h2v2H100V208M106 208h2v2H106V208M108 208h2v2H108V208M116 208h2v2H116V208M122 208h2v2H122V208M128 208h2v2H128V208M130 208h2v2H130V208M136 208h2v2H136V208M138 208h2v2H138V208M144 208h2v2H144V208M146 208h2v2H146V208M148 208h2v2H148V208M150 208h2v2H150V208M152 208h2v2H152V208M154 208h2v2H154V208M156 208h2v2H156V208M168 208h2v2H168V208M174 208h2v2H174V208M180 208h2v2H180V208M186 208h2v2H186V208M192 208h2v2H192V208M206 208h2v2H206V208"/></svg>